<?xml version="1.0" standalone="no"?>
<!DOCTYPE svg PUBLIC "-//W3C//DTD SVG 20010904//EN"
 "http://www.w3.org/TR/2001/REC-SVG-20010904/DTD/svg10.dtd">
<svg version="1.0" xmlns="http://www.w3.org/2000/svg"
 width="913.000000pt" height="913.000000pt" viewBox="0 0 913.000000 913.000000"
 preserveAspectRatio="xMidYMid meet">
<metadata>
Created by potrace 1.11, written by Peter Selinger 2001-2013
</metadata>
<g transform="translate(0.000000,913.000000) scale(0.100000,-0.100000)"
fill="#000000" stroke="none">
<path d="M3206 9114 c-3 -8 -2 -12 4 -9 6 3 10 1 10 -4 0 -6 -6 -11 -14 -11
-18 0 -27 -14 -30 -44 -2 -13 -12 -32 -24 -44 -11 -11 -26 -39 -32 -60 -6 -23
-28 -58 -50 -81 -22 -23 -40 -43 -40 -46 0 -2 -11 -29 -25 -59 -14 -30 -25
-59 -25 -64 0 -6 -16 -19 -35 -31 -19 -11 -40 -32 -45 -46 -8 -20 -15 -24 -33
-20 -13 4 -42 -3 -67 -14 -25 -11 -55 -21 -66 -21 -26 0 -54 -52 -54 -98 0
-32 -35 -102 -51 -102 -5 0 -9 -7 -9 -15 0 -8 4 -15 10 -15 5 0 7 -7 4 -15 -7
-17 11 -21 21 -5 4 6 12 7 18 3 6 -4 26 -6 43 -5 21 2 34 -3 38 -13 3 -8 16
-15 29 -15 29 0 50 -21 41 -43 -4 -11 4 -21 25 -32 17 -8 31 -19 31 -24 0 -15
54 -31 94 -27 28 2 44 -2 58 -16 10 -10 23 -16 28 -13 13 8 13 45 0 45 -14 0
-12 16 3 32 8 7 16 36 20 63 8 69 24 106 47 112 11 3 20 12 20 19 0 8 5 14 11
14 5 0 7 -5 3 -11 -4 -8 0 -8 15 0 11 7 21 9 21 5 0 -4 9 5 21 20 11 14 25 26
31 26 22 0 160 -75 169 -92 5 -9 21 -29 34 -42 14 -14 25 -29 25 -35 0 -5 9
-13 20 -16 11 -3 20 -11 20 -16 0 -5 9 -19 20 -31 11 -12 20 -29 20 -39 0 -9
10 -20 23 -24 l22 -7 -25 -8 c-14 -4 -19 -8 -12 -9 6 -1 12 -5 12 -11 0 -6
-27 -10 -61 -10 -49 0 -73 -6 -118 -29 -31 -17 -81 -37 -111 -46 -58 -17 -86
-28 -133 -51 -41 -20 -67 -18 -67 6 0 11 -4 20 -10 20 -5 0 -10 7 -10 15 0 8
-10 19 -21 26 -18 9 -25 7 -41 -9 -20 -19 -19 -19 6 -47 14 -15 26 -32 26 -37
0 -4 11 -6 25 -2 19 5 25 2 25 -10 0 -17 -30 -22 -46 -7 -5 6 -25 6 -52 0 -24
-5 -48 -7 -53 -3 -6 3 -19 -2 -29 -12 -36 -36 -49 -44 -71 -44 -23 0 -87 -43
-103 -68 -6 -10 -10 -11 -15 -3 -13 20 -122 20 -161 -1 -19 -10 -45 -18 -57
-18 -13 0 -23 -4 -23 -10 0 -5 -5 -10 -12 -10 -6 0 -19 -6 -27 -14 -21 -18
-104 -37 -114 -27 -5 5 -17 2 -27 -7 -9 -10 -31 -28 -49 -42 -17 -14 -31 -28
-31 -32 0 -11 -76 -79 -110 -100 -15 -9 -34 -30 -41 -47 -8 -17 -19 -31 -26
-31 -6 0 -20 -13 -30 -30 -9 -16 -21 -30 -25 -30 -4 0 -8 -6 -8 -14 0 -20 -48
-56 -74 -56 -28 0 -46 -18 -46 -45 0 -15 -11 -27 -35 -38 -20 -9 -38 -24 -41
-32 -4 -8 -14 -15 -24 -15 -10 0 -20 -6 -23 -14 -3 -8 -35 -19 -79 -27 -79
-14 -171 -52 -208 -87 -13 -12 -29 -22 -36 -22 -7 0 -14 -4 -16 -10 -4 -12
-144 24 -141 37 2 11 -137 26 -160 17 -24 -9 -33 -46 -26 -99 16 -114 12 -141
-27 -179 -20 -20 -46 -38 -58 -42 -11 -3 -43 -16 -71 -29 -27 -13 -57 -26 -66
-28 -9 -3 -33 -35 -53 -71 -20 -36 -41 -66 -47 -66 -5 0 -22 -12 -37 -27 -15
-15 -31 -28 -37 -30 -67 -16 -86 -23 -99 -36 -8 -8 -31 -18 -50 -21 -22 -4
-47 -20 -70 -46 -20 -22 -40 -40 -46 -40 -5 0 -10 -4 -10 -10 0 -5 -6 -10 -13
-10 -23 0 -71 -60 -88 -108 -10 -31 -22 -48 -35 -51 -10 -1 -27 -10 -36 -18
-12 -11 -44 -15 -122 -16 l-106 -2 0 -3058 0 -3059 23 7 c12 4 39 9 61 11 34
4 37 2 26 -11 -7 -9 -19 -14 -27 -11 -7 3 -13 2 -13 -2 0 -5 -10 -19 -22 -32
l-22 -23 95 7 c52 3 117 8 144 11 35 3 44 2 30 -4 -17 -8 -14 -10 17 -10 20
-1 40 4 43 9 3 6 16 10 28 10 12 0 33 9 47 20 14 11 37 20 51 20 37 0 129 29
129 40 0 13 -9 13 -63 -6 -26 -9 -52 -14 -58 -12 -7 2 22 14 64 26 43 12 77
26 77 31 0 4 13 25 30 46 31 38 43 28 14 -13 -8 -12 -10 -22 -5 -22 13 0 42
55 39 72 -2 8 15 16 47 21 129 23 156 29 169 42 7 7 16 48 20 91 4 42 16 124
26 182 11 58 18 108 16 110 -5 4 -26 -57 -26 -74 0 -22 -42 -64 -62 -64 -11 0
-17 -4 -13 -9 7 -12 -58 -26 -80 -18 -8 4 -19 -1 -24 -11 -8 -14 -10 -13 -16
11 -5 19 -12 26 -22 23 -9 -4 -16 4 -20 24 -3 17 -9 30 -14 30 -13 0 -27 -63
-21 -100 3 -22 1 -31 -5 -25 -12 13 -33 85 -34 116 l0 24 -9 -22 c-5 -13 -12
-45 -16 -73 -6 -46 -9 -50 -34 -50 -37 0 -56 43 -41 91 24 81 40 112 77 150
49 51 112 80 237 109 l98 23 23 46 c12 26 38 71 58 101 52 81 96 172 112 232
23 84 48 152 63 166 7 7 13 19 13 25 0 15 64 67 82 67 13 0 67 30 91 50 97 82
105 85 225 83 89 -2 104 0 109 15 3 9 20 32 36 50 17 17 27 32 23 32 -5 0 6
13 23 29 26 24 39 29 69 27 24 -2 38 -9 40 -19 2 -9 16 -19 33 -22 19 -4 29
-13 29 -25 0 -10 4 -21 9 -24 18 -11 102 -166 96 -176 -3 -5 0 -10 9 -10 38 0
126 -135 126 -195 0 -21 8 -29 43 -44 40 -17 76 -51 103 -97 10 -17 13 -15 33
24 21 42 35 48 93 43 12 -2 19 10 26 43 8 39 6 51 -17 99 -14 30 -32 62 -40
71 -15 18 -16 25 -26 247 -13 274 3 329 98 343 42 7 51 4 107 -33 34 -21 61
-42 61 -45 -2 -21 0 -26 9 -21 6 3 10 1 10 -6 0 -7 11 -25 25 -39 24 -25 25
-29 14 -86 -18 -98 -39 -147 -81 -191 l-41 -42 -3 -98 c-2 -54 -7 -116 -10
-138 -7 -41 -8 -101 -3 -215 1 -42 -4 -83 -15 -114 -9 -27 -16 -56 -15 -65 1
-9 -1 -29 -6 -44 -6 -24 6 -223 21 -342 4 -29 2 -36 -5 -25 -9 13 -11 12 -12
-5 -1 -11 0 -24 1 -30 1 -5 4 -20 5 -33 2 -13 11 -29 21 -36 20 -15 12 -51 -9
-43 -8 3 -20 1 -28 -5 -11 -8 -10 -9 4 -4 9 3 17 1 17 -3 0 -5 -5 -11 -12 -13
-16 -6 -14 -60 5 -99 15 -33 28 -108 28 -159 -1 -71 -3 -70 130 -70 l120 0
-18 24 c-10 14 -26 28 -35 33 -33 15 -158 146 -158 165 0 10 -4 18 -10 18 -5
0 -10 8 -10 18 0 10 -5 23 -12 30 -7 7 -8 12 -2 12 10 0 64 -84 64 -100 0 -6
5 -10 10 -10 6 0 10 9 10 20 0 11 -7 20 -15 20 -16 0 -21 15 -7 23 9 7 52 -28
52 -42 0 -6 9 -11 19 -11 11 0 26 -7 35 -15 8 -8 19 -15 25 -15 19 0 58 -73
65 -123 l7 -47 1194 0 1194 0 20 45 c18 41 41 60 41 35 0 -5 7 -10 15 -10 12
0 14 7 9 27 -7 25 -6 26 26 19 55 -11 65 -25 37 -55 -37 -41 -26 -58 39 -60
44 -1 56 2 61 16 10 27 71 88 79 80 4 -4 -2 -18 -14 -30 -12 -13 -19 -27 -15
-30 11 -12 23 -8 23 8 0 8 4 15 9 15 15 0 22 33 9 42 -10 6 -6 15 17 34 19 18
31 22 33 14 3 -7 -1 -16 -8 -20 -7 -4 -10 -14 -8 -21 4 -9 12 -3 24 18 11 18
22 33 27 33 4 0 7 7 7 16 0 16 50 84 63 84 14 0 7 -29 -11 -47 -10 -10 -33
-43 -51 -73 -19 -30 -51 -70 -72 -89 -22 -19 -39 -38 -39 -43 0 -4 56 -8 125
-8 77 0 125 4 125 10 0 6 5 10 11 10 5 0 7 -4 4 -10 -4 -6 41 -10 129 -10 134
0 135 0 163 27 15 16 27 31 26 34 -1 3 16 4 37 2 35 -4 43 1 87 44 48 47 172
202 204 253 21 33 234 250 246 250 11 0 123 113 123 124 0 4 32 40 70 79 39
39 70 73 70 76 0 3 12 20 28 36 39 43 52 78 52 145 0 44 4 60 14 60 20 0 106
-40 244 -114 67 -36 142 -71 165 -77 23 -6 53 -19 67 -29 37 -26 293 -167 383
-211 59 -28 88 -37 116 -34 34 3 45 -2 94 -46 53 -47 173 -116 184 -105 17 17
-33 80 -94 117 -83 51 -111 104 -98 187 8 51 17 62 54 62 40 0 70 -36 64 -76
-3 -18 -2 -41 1 -51 7 -17 8 -17 17 0 6 9 16 17 23 17 8 0 34 12 60 26 l46 26
26 -21 c23 -18 35 -20 122 -14 95 5 112 9 162 38 35 21 68 18 120 -8 43 -21
45 -25 43 -62 -3 -81 -15 -141 -38 -190 -21 -43 -24 -64 -22 -148 1 -114 -9
-136 -59 -117 -16 7 -53 16 -83 21 -30 4 -71 19 -91 33 -40 26 -184 71 -200
61 -17 -11 1 -33 32 -39 17 -3 41 -17 54 -31 13 -14 29 -22 38 -19 9 3 19 -3
26 -16 8 -15 18 -20 31 -17 13 3 19 0 19 -11 0 -8 3 -13 6 -9 17 17 179 -55
198 -88 17 -31 39 -45 66 -43 37 3 103 -13 118 -29 20 -20 11 -24 -27 -13 -26
7 -33 6 -37 -8 -3 -9 -10 -25 -15 -34 -13 -26 -11 -58 4 -58 8 0 20 18 27 40
17 52 32 52 24 0 l-7 -40 72 0 c63 0 71 2 71 19 0 11 -6 22 -12 25 -10 5 -10
7 0 12 15 7 17 693 2 775 -6 30 -15 108 -21 174 -6 66 -12 129 -13 139 -2 11
3 35 10 55 20 55 17 126 -8 179 -31 66 -38 210 -13 256 17 32 17 35 1 77 -18
43 -22 58 -33 109 -3 14 -10 30 -14 36 -13 16 0 124 19 161 19 37 28 40 60 17
l22 -15 0 3555 0 3556 -1520 0 c-1350 0 -1520 -2 -1520 -15 0 -12 8 -14 40 -9
36 6 40 5 40 -15 0 -15 6 -21 24 -21 17 0 26 -7 30 -25 4 -14 4 -30 0 -36 -3
-5 -1 -15 5 -22 15 -19 -10 -61 -38 -65 -13 -2 -27 2 -32 9 -6 10 -10 10 -22
0 -11 -8 -21 -9 -34 -3 -10 5 -30 15 -45 23 -34 15 -35 24 -4 52 20 19 21 24
10 35 -19 17 -18 61 1 68 8 4 15 10 15 15 0 5 -599 9 -1434 9 -1287 0 -1434
-2 -1440 -16z m606 -616 c-7 -7 -8 -17 -1 -30 10 -19 4 -22 -33 -19 -12 2 -18
-5 -18 -20 0 -12 -3 -20 -6 -16 -14 13 7 73 29 83 30 16 43 16 29 2z m98 -28
c-13 -9 -13 -11 0 -20 8 -5 11 -10 5 -10 -5 0 -17 5 -25 10 -13 9 -13 11 0 20
8 5 20 10 25 10 6 0 3 -5 -5 -10z m1340 -35 c0 -8 -4 -15 -10 -15 -5 0 -10 7
-10 15 0 8 5 15 10 15 6 0 10 -7 10 -15z m-5 -44 c-3 -6 -11 -11 -17 -11 -6 0
-6 6 2 15 14 17 26 13 15 -4z m-1481 -6 c-7 -17 -7 -17 -29 -9 -13 5 -14 8 -3
15 21 14 38 10 32 -6z m1540 -48 c-13 -8 -14 -11 -3 -18 11 -7 11 -9 -2 -9 -8
0 -24 6 -34 14 -16 12 -17 16 -6 29 10 13 17 14 37 5 22 -10 23 -13 8 -21z
m-1325 -5 c26 -48 -12 -79 -49 -42 -24 24 -20 40 5 20 9 -8 15 -8 15 -2 0 6
-5 14 -11 18 -8 4 -7 9 2 15 20 13 27 11 38 -9z m1471 -9 c14 -7 32 -13 41
-13 9 0 19 -7 23 -15 7 -19 -10 -19 -64 0 -23 8 -46 13 -50 10 -4 -3 -22 -2
-38 1 -22 4 -30 12 -29 25 1 16 7 17 46 12 25 -3 56 -12 71 -20z m-1507 -77
c20 4 20 4 2 -4 -25 -11 -63 -3 -43 9 7 5 14 4 16 0 2 -5 13 -7 25 -5z m1634
-8 c15 -20 24 -78 12 -78 -20 0 3 -20 24 -21 13 -1 5 -5 -17 -10 -26 -6 -43
-6 -50 1 -5 5 -18 10 -27 10 -9 0 -20 7 -23 15 -4 11 3 17 25 22 25 5 28 8 15
15 -9 5 -24 8 -34 8 -9 -1 -27 1 -40 5 -21 7 -21 8 -5 20 11 9 22 10 29 4 7
-6 22 -4 40 6 35 18 39 18 51 3z m-810 -104 c-3 -3 -12 -4 -19 -1 -8 3 -5 6 6
6 11 1 17 -2 13 -5z m365 -15 c15 1 29 -3 33 -9 4 -6 -5 -10 -20 -10 -21 0
-26 -4 -21 -16 4 -10 2 -14 -6 -11 -7 2 -20 -1 -28 -8 -15 -13 -59 -18 -159
-16 -92 2 -45 21 63 25 54 3 100 7 103 10 10 10 -9 26 -30 26 -18 0 -19 2 -7
10 8 5 22 7 30 4 8 -4 27 -6 42 -5z m583 0 c11 -16 2 -17 -25 -2 -24 12 -24
13 -3 13 12 0 25 -5 28 -11z m-175 -19 c12 -8 11 -10 -7 -10 -13 0 -23 5 -23
10 0 13 11 13 30 0z m-276 -12 c19 -8 23 -14 16 -24 -13 -15 -44 -8 -66 17
-16 18 -16 19 4 19 12 0 32 -5 46 -12z m-659 -38 c-3 -5 -11 -10 -16 -10 -6 0
-7 5 -4 10 3 6 11 10 16 10 6 0 7 -4 4 -10z m365 -28 c0 -5 -20 -9 -45 -10
-25 0 -45 4 -45 9 0 5 20 9 45 9 25 0 45 -4 45 -8z m132 -24 c-7 -7 -12 -8
-12 -2 0 14 12 26 19 19 2 -3 -1 -11 -7 -17z m193 13 c6 -2 -6 -9 -25 -16 -48
-18 -150 -19 -150 -2 0 8 2 16 4 18 4 4 152 4 171 0z m-210 -35 c20 -19 22
-25 10 -29 -8 -4 -20 2 -28 13 -9 13 -17 16 -27 9 -8 -5 -29 -9 -47 -9 -26 0
-31 3 -26 16 4 12 14 15 39 11 19 -3 34 -2 34 4 0 16 18 10 45 -15z m95 -26
c0 -12 -41 -30 -52 -24 -4 3 -5 10 -2 17 5 15 54 21 54 7z m-829 -26 c-18 -8
-36 -13 -39 -10 -6 7 37 25 58 25 8 -1 0 -7 -19 -15z m646 0 c30 -8 19 -24
-17 -24 -29 0 -45 12 -33 24 8 7 21 8 50 0z m117 -35 c-8 -14 -21 -10 -28 7
-10 25 5 40 20 19 7 -10 11 -22 8 -26z m134 -22 c6 3 12 0 12 -5 0 -5 -19 -16
-42 -25 -47 -17 -61 -20 -98 -18 -40 2 -3 21 42 21 20 0 40 5 43 10 3 6 1 10
-5 10 -6 0 -8 5 -5 10 4 6 13 7 23 1 9 -4 23 -6 30 -4z m-1188 -47 c0 -5 -7
-10 -16 -10 -8 0 -12 5 -9 10 3 6 10 10 16 10 5 0 9 -4 9 -10z m-77 -35 c-17
-8 -35 -21 -40 -29 -5 -8 -32 -17 -68 -21 -43 -5 -56 -3 -45 4 8 6 22 11 30
11 8 0 28 10 43 23 18 14 44 23 70 24 l42 2 -32 -14z m867 -30 c0 -9 -44 -23
-54 -17 -5 3 -1 9 10 13 23 9 44 11 44 4z m-660 -25 c0 -5 -5 -10 -11 -10 -5
0 -7 5 -4 10 3 6 8 10 11 10 2 0 4 -4 4 -10z m364 0 c-5 -5 -30 -14 -54 -19
-25 -5 -55 -13 -67 -16 -14 -5 -23 -3 -23 4 0 6 10 13 23 16 117 27 135 29
121 15z m156 -8 c0 -5 -7 -9 -15 -9 -8 0 -12 4 -9 9 3 4 9 8 15 8 5 0 9 -4 9
-8z m236 -49 c-2 -2 -33 -8 -68 -13 -36 -5 -74 -13 -84 -17 -17 -6 -17 -5 -4
8 16 17 114 37 143 31 10 -3 16 -6 13 -9z m-2036 -33 c-24 -15 -37 -11 -16 5
11 8 22 12 25 9 3 -3 -1 -9 -9 -14z m1490 11 c0 -13 -47 -41 -69 -41 -20 0
-37 -17 -27 -27 3 -3 12 0 20 6 9 8 16 8 20 2 8 -13 -22 -28 -53 -27 -37 1
-35 18 7 46 62 42 102 58 102 41z m-1670 -30 c0 -4 -12 -21 -27 -37 -20 -21
-28 -25 -31 -14 -3 8 0 16 7 18 6 2 11 10 11 17 0 7 6 16 13 18 19 8 27 8 27
-2z m1720 -9 c0 -5 -11 -14 -25 -20 -28 -13 -35 1 -7 17 21 13 32 14 32 3z
m-1660 -26 c0 -8 -4 -18 -10 -21 -5 -3 -10 3 -10 14 0 12 5 21 10 21 6 0 10
-6 10 -14z m157 -22 c-3 -3 -12 -4 -19 -1 -8 3 -5 6 6 6 11 1 17 -2 13 -5z
m1278 -34 c-3 -5 -10 -10 -16 -10 -5 0 -9 5 -9 10 0 6 7 10 16 10 8 0 12 -4 9
-10z m-1450 -20 c-3 -5 -12 -10 -18 -10 -7 0 -6 4 3 10 19 12 23 12 15 0z
m2005 -10 c-20 -13 -53 -13 -45 0 3 6 18 10 33 10 21 0 24 -2 12 -10z m73 3
c-7 -2 -21 -2 -30 0 -10 3 -4 5 12 5 17 0 24 -2 18 -5z m368 -17 c-7 -8 -26
-18 -42 -21 -22 -5 -29 -11 -24 -22 4 -13 3 -14 -9 -4 -11 9 -20 10 -33 2 -16
-9 -16 -10 6 -11 41 0 14 -12 -34 -15 -27 -2 -55 -11 -68 -21 l-21 -19 15 25
c9 13 27 27 40 31 13 4 53 20 89 37 73 35 100 41 81 18z m-2536 -16 c3 -5 2
-10 -4 -10 -5 0 -13 5 -16 10 -3 6 -2 10 4 10 5 0 13 -4 16 -10z m2175 1 c0
-11 -35 -21 -77 -21 -33 0 -52 15 -31 23 22 9 108 7 108 -2z m-159 -55 c-7 -8
-33 -21 -57 -30 -42 -14 -45 -14 -42 2 2 11 20 21 48 29 60 15 64 15 51 -1z
m604 -30 c-10 -14 -24 -26 -33 -26 -11 0 -7 9 14 29 34 35 42 33 19 -3z m515
14 c-8 -5 -24 -10 -35 -10 -11 0 -47 -14 -80 -30 -33 -16 -68 -30 -77 -30 -9
0 -20 -4 -23 -10 -3 -5 -16 -15 -28 -20 -15 -8 -13 -3 8 14 17 14 35 26 41 26
6 0 23 11 38 25 15 14 31 23 36 20 5 -3 22 1 37 9 32 17 109 23 83 6z m135
-39 c-90 -42 -177 -63 -156 -37 7 8 27 18 44 22 18 3 38 11 45 17 13 10 104
35 132 36 8 0 -21 -17 -65 -38z m-745 -6 c0 -8 -7 -16 -15 -16 -24 -2 -76 -21
-106 -38 -16 -10 -29 -5 -29 10 0 6 25 17 63 25 10 2 25 11 33 19 20 19 54 19
54 0z m-80 1 c0 -3 -4 -8 -10 -11 -5 -3 -10 -1 -10 4 0 6 5 11 10 11 6 0 10
-2 10 -4z m645 -46 c4 -6 -6 -10 -22 -10 -22 0 -25 2 -13 10 19 12 27 12 35 0z
m-435 -7 c-1 -12 -97 -56 -112 -51 -7 3 12 17 42 31 58 28 70 32 70 20z
m-2896 -9 c20 -8 11 -24 -15 -24 -10 0 -19 7 -19 15 0 16 9 19 34 9z m3256 -4
c-20 -13 -33 -13 -25 0 3 6 14 10 23 10 15 0 15 -2 2 -10z m-228 -12 c-9 -9
-15 -9 -24 0 -9 9 -7 12 12 12 19 0 21 -3 12 -12z m318 -43 c0 -9 -43 -22 -93
-29 -64 -9 -60 9 6 21 64 13 87 15 87 8z m-3390 -25 c0 -5 -2 -10 -4 -10 -3 0
-8 5 -11 10 -3 6 -1 10 4 10 6 0 11 -4 11 -10z m3154 -38 c3 -5 -1 -9 -9 -9
-8 0 -12 4 -9 9 3 4 7 8 9 8 2 0 6 -4 9 -8z m36 -17 c-7 -9 -15 -13 -17 -11
-7 7 7 26 19 26 6 0 6 -6 -2 -15z m249 -9 c-12 -10 -59 -15 -59 -6 0 5 14 10
32 10 17 0 29 -2 27 -4z m-379 -31 c-7 -9 -15 -13 -18 -10 -3 3 -11 0 -19 -6
-16 -14 -17 -3 0 16 6 8 20 14 31 15 15 0 16 -3 6 -15z m-2850 -9 c0 -2 -7 -9
-15 -16 -13 -11 -14 -10 -9 4 5 14 24 23 24 12z m3280 -26 c0 -5 -4 -10 -9
-10 -6 0 -13 5 -16 10 -3 6 1 10 9 10 9 0 16 -4 16 -10z m-460 -30 c0 -5 -5
-10 -11 -10 -5 0 -7 5 -4 10 3 6 8 10 11 10 2 0 4 -4 4 -10z m250 -50 c-19
-13 -30 -13 -30 0 0 6 10 10 23 10 18 0 19 -2 7 -10z m-516 -61 c-3 -5 -9 -7
-14 -4 -14 9 -41 -7 -49 -28 -5 -12 -10 -16 -14 -10 -4 6 7 25 23 43 25 27 33
30 45 20 8 -7 12 -16 9 -21z m1001 24 c-11 -2 -29 -8 -40 -12 -43 -18 -110
-29 -119 -21 -5 5 3 11 20 15 16 3 43 10 59 14 17 5 46 9 65 9 19 0 26 -2 15
-5z m-538 -28 c-26 -25 -42 -22 -25 5 7 10 20 18 29 17 16 -1 15 -4 -4 -22z
m-99 -24 c-27 -34 -32 -33 -19 3 6 14 18 26 27 26 13 0 11 -5 -8 -29z m-28 15
c0 -2 -6 -9 -13 -15 -10 -8 -14 -7 -14 4 0 8 6 15 14 15 7 0 13 -2 13 -4z
m475 -6 c-27 -12 -35 -12 -35 0 0 6 12 10 28 9 24 0 25 -1 7 -9z m-408 -35
c-23 -22 -33 -18 -12 5 10 11 20 18 23 16 2 -3 -3 -12 -11 -21z m-1405 -17
c-7 -7 -12 -8 -12 -2 0 14 12 26 19 19 2 -3 -1 -11 -7 -17z m1798 7 c-7 -8
-20 -15 -29 -15 -13 1 -13 3 3 15 26 19 42 19 26 0z m-1930 -15 c-6 -11 -13
-20 -16 -20 -2 0 0 9 6 20 6 11 13 20 16 20 2 0 0 -9 -6 -20z m1000 -21 c-12
-16 -25 -28 -28 -25 -5 6 36 56 45 56 3 0 -5 -14 -17 -31z m70 -4 c0 -27 -19
-43 -30 -25 -5 8 -15 4 -34 -16 -40 -44 -31 -18 12 31 39 46 52 48 52 10z
m-1390 21 c0 -11 -19 -15 -25 -6 -3 5 1 10 9 10 9 0 16 -2 16 -4z m97 -9 c3
-4 -2 -9 -11 -13 -20 -8 -69 4 -62 15 6 10 63 8 73 -2z m147 7 c17 -6 13 -47
-6 -71 -6 -8 -6 -19 1 -30 6 -10 11 -12 11 -5 0 6 6 12 14 12 8 0 16 7 20 15
9 25 29 18 22 -7 -4 -13 -8 -30 -10 -38 -2 -8 -11 -14 -20 -12 -9 2 -16 -1
-16 -7 0 -5 -3 -16 -6 -25 -5 -12 0 -16 20 -16 14 0 26 6 27 13 0 10 2 10 6 0
2 -7 8 -13 13 -13 12 0 19 39 8 42 -12 4 0 58 13 58 10 0 12 -9 13 -60 1 -24
6 -35 16 -35 8 0 18 -4 22 -10 5 -6 8 -6 8 1 0 6 15 14 33 18 24 5 29 9 17 16
-8 5 -11 12 -7 16 9 10 18 0 21 -23 3 -17 36 -33 36 -16 0 13 60 13 62 0 0 -7
2 -16 3 -22 2 -5 3 -40 4 -77 0 -38 5 -68 9 -68 4 0 7 18 5 40 -1 22 2 40 8
40 5 0 9 7 9 15 0 8 7 15 16 15 8 0 13 -4 10 -9 -4 -5 -1 -11 5 -13 9 -3 16
-27 21 -75 2 -21 18 -15 18 7 0 11 -6 20 -12 20 -7 1 -2 10 11 20 13 11 19 21
15 22 -5 0 -13 2 -19 3 -5 2 -14 3 -19 4 -5 0 2 11 15 24 20 18 23 30 21 70
-2 26 1 47 7 47 17 0 21 -18 11 -46 -8 -20 -8 -35 -1 -49 6 -11 12 -38 14 -60
l3 -40 9 34 c5 20 16 36 26 38 11 3 17 8 15 12 -14 21 19 36 72 33 l22 -2 -20
-20 c-20 -20 -26 -40 -12 -40 4 0 13 9 20 21 10 15 16 18 26 10 13 -11 26 -5
26 12 0 5 -7 7 -15 3 -8 -3 -15 -1 -15 5 0 13 27 22 46 15 14 -5 14 -8 -1 -22
-15 -15 -14 -18 5 -39 16 -17 20 -30 15 -47 -11 -33 -24 -48 -41 -41 -8 3 -14
-1 -14 -11 0 -9 -6 -16 -12 -16 -25 -1 48 -50 74 -50 21 0 25 4 21 19 -4 15 1
18 32 16 41 -3 50 -9 40 -24 -9 -15 -35 -14 -35 2 0 6 -5 4 -11 -6 -14 -23 -4
-48 15 -41 9 3 25 -5 38 -19 18 -19 26 -22 40 -13 13 8 24 7 47 -7 16 -9 39
-17 51 -17 11 0 18 -4 15 -10 -3 -5 -14 -10 -24 -10 -25 0 -46 -26 -30 -35 6
-4 15 -1 20 6 5 8 9 10 9 5 0 -5 6 -3 14 3 11 9 25 10 50 2 30 -8 38 -7 46 7
9 16 9 16 10 1 0 -19 26 -33 35 -19 4 6 1 10 -6 10 -10 0 -10 3 -2 11 15 15
33 3 33 -22 0 -22 17 -24 41 -6 11 8 48 11 110 10 115 -3 188 -16 200 -34 6
-10 28 -14 72 -14 51 0 63 -3 59 -14 -3 -9 -1 -12 5 -8 6 4 34 -1 62 -10 45
-14 55 -14 78 -2 21 11 27 11 30 2 3 -7 15 -13 27 -13 25 0 135 -37 153 -52 7
-6 19 -8 27 -5 8 3 17 3 20 -1 4 -3 17 -7 29 -9 12 -2 32 -14 44 -28 12 -14
27 -25 33 -25 5 0 10 -7 10 -15 0 -8 7 -15 16 -15 14 0 15 -2 3 -17 -10 -11
-10 -14 -1 -9 14 8 15 5 6 -18 -3 -9 -12 -16 -20 -16 -8 0 -14 -4 -14 -10 0
-5 9 -10 20 -10 11 0 20 -6 20 -12 1 -17 60 -86 60 -70 0 13 0 14 52 -30 23
-20 28 -32 30 -82 2 -41 -1 -61 -9 -63 -7 -3 -13 2 -13 10 0 9 -7 23 -17 32
-15 16 -17 16 -25 0 -6 -10 -6 -21 0 -28 5 -7 13 -26 17 -44 4 -22 11 -30 21
-26 10 3 14 -2 14 -18 0 -35 19 -96 34 -112 7 -7 16 -23 20 -35 4 -12 14 -29
22 -37 14 -13 14 -15 -1 -15 -14 0 -16 -5 -10 -27 4 -16 9 -73 10 -129 1 -55
5 -106 9 -112 4 -7 4 -17 1 -23 -4 -5 -1 -18 7 -27 8 -9 13 -23 12 -29 -1 -7
-2 -31 -3 -53 -1 -33 -4 -40 -22 -40 -24 0 -53 -26 -44 -40 3 -5 -1 -10 -9
-10 -9 0 -16 -5 -16 -11 0 -6 -9 -9 -20 -6 -11 3 -21 2 -21 -1 -1 -4 -3 -16
-4 -28 -1 -11 -10 -33 -21 -50 l-18 -29 25 23 c24 21 59 30 59 15 0 -5 -18
-25 -40 -46 -21 -22 -39 -42 -38 -45 0 -4 0 -23 -1 -44 -1 -31 -4 -35 -22 -31
-14 4 -17 9 -10 16 6 6 11 20 11 32 0 15 -5 11 -17 -15 -10 -19 -22 -38 -28
-42 -6 -5 -7 -11 0 -15 13 -10 18 -43 7 -43 -5 0 -12 -9 -15 -21 -3 -12 -10
-18 -16 -15 -6 4 -8 13 -4 21 3 10 -2 15 -16 15 -27 0 -38 -26 -23 -51 17 -27
15 -29 -18 -29 -20 0 -30 -5 -30 -15 0 -8 -4 -15 -10 -15 -5 0 -10 7 -10 15 0
8 5 15 10 15 6 0 10 5 10 11 0 6 -7 8 -16 5 -8 -3 -12 -2 -9 4 6 10 -7 14 -35
11 -13 -2 -13 0 -1 8 8 5 11 16 7 26 -4 12 -13 15 -35 10 -17 -3 -32 -2 -36 4
-3 6 -11 11 -17 11 -6 0 -6 -6 2 -15 19 -23 -1 -40 -29 -25 -17 8 -21 8 -19
-2 2 -7 8 -17 13 -21 6 -5 2 -6 -8 -3 -10 3 -27 6 -38 6 -10 0 -19 7 -19 15 0
21 -27 19 -34 -3 -3 -9 -1 -33 4 -52 6 -19 10 -36 10 -37 0 -9 -53 -1 -70 9
-16 10 -22 10 -28 1 -11 -17 -118 -27 -128 -12 -4 7 -3 9 4 5 6 -3 13 -2 17 4
3 5 28 10 56 10 30 0 49 4 49 11 0 8 -13 9 -41 5 -37 -6 -40 -5 -34 14 6 17 2
20 -28 20 -19 0 -40 6 -46 14 -14 16 -26 15 -59 -3 -22 -12 -23 -11 -17 8 5
16 1 22 -22 27 -15 3 -44 10 -63 15 -19 5 -50 9 -69 9 -21 0 -43 8 -56 20 -12
12 -35 23 -51 26 -16 3 -30 7 -33 10 -2 2 -10 -1 -17 -7 -8 -6 -21 -9 -29 -5
-8 3 -15 1 -15 -4 0 -5 -22 -7 -49 -5 -43 3 -49 1 -45 -13 5 -15 4 -15 -9 1
-15 19 -53 22 -77 7 -10 -6 -3 -8 23 -3 25 4 37 2 37 -6 0 -7 -8 -11 -17 -9
-10 1 -24 -1 -32 -6 -16 -10 -32 11 -23 32 3 10 0 13 -9 10 -8 -3 -14 -14 -13
-24 0 -16 -6 -19 -32 -16 -17 2 -42 -1 -54 -8 -18 -9 -21 -9 -15 0 5 8 3 11
-6 8 -8 -3 -16 -13 -17 -23 -3 -10 0 -15 7 -11 6 4 11 2 11 -3 0 -13 -2 -13
-35 -1 -32 12 -40 -3 -27 -51 6 -23 14 -34 25 -33 21 2 23 -29 3 -45 -15 -13
-26 -101 -12 -101 4 0 5 -12 1 -27 -4 -16 -8 -62 -10 -103 -2 -41 -7 -86 -12
-100 -6 -14 -6 -36 -2 -50 4 -14 7 -19 8 -12 1 7 6 10 11 7 6 -4 10 9 10 32 0
38 22 83 41 83 5 0 9 -7 9 -15 0 -18 21 -20 37 -4 9 9 11 7 6 -9 -7 -28 45
-111 75 -118 12 -4 22 -10 22 -15 0 -14 26 -10 40 6 9 11 17 12 31 5 10 -6 36
-7 59 -4 27 4 40 3 40 -5 0 -6 11 -11 25 -11 14 0 25 -4 25 -10 0 -5 11 -10
25 -10 14 0 41 -7 60 -14 26 -11 35 -12 36 -3 0 9 2 9 6 0 3 -9 10 -10 22 -3
14 7 21 4 31 -15 18 -33 8 -54 -24 -48 -19 4 -26 1 -26 -11 0 -14 14 -15 113
-11 61 2 135 8 162 13 47 9 48 9 15 12 -19 2 -41 3 -47 3 -7 -1 -13 5 -13 12
0 11 26 19 135 40 11 2 45 4 77 4 56 1 64 8 45 38 -11 17 6 24 39 15 16 -4 40
-7 54 -5 14 1 45 3 70 5 25 2 52 7 60 12 8 6 26 11 41 13 15 1 39 8 55 14 16
7 49 14 74 16 25 3 53 12 64 21 10 9 19 16 20 14 0 -2 13 1 28 7 31 12 48 34
23 29 -10 -2 -20 2 -22 9 -5 15 36 53 57 53 9 0 29 14 45 30 16 17 36 28 43
25 10 -4 12 0 8 12 -4 10 -4 14 0 10 4 -4 16 0 26 9 10 10 30 18 46 19 26 2
28 0 26 -29 -2 -17 -5 -44 -8 -59 -3 -16 0 -27 6 -27 15 0 -37 -47 -61 -55
-23 -7 -36 -31 -40 -72 0 -7 -8 -10 -16 -7 -9 4 -18 -1 -21 -11 -4 -9 -12 -14
-18 -12 -14 6 -52 -20 -43 -29 3 -4 14 -3 24 1 32 14 40 13 67 -5 23 -15 25
-18 12 -30 -13 -10 -17 -8 -27 16 -10 27 -12 28 -19 9 -12 -28 -12 -37 1 -30
6 4 9 -4 7 -22 -2 -18 1 -27 10 -26 14 3 16 -13 3 -21 -5 -3 -7 -15 -4 -26 3
-11 0 -20 -6 -20 -6 0 -11 -9 -11 -21 0 -12 -8 -23 -18 -26 -14 -3 -18 -14
-17 -47 1 -24 5 -48 9 -54 5 -8 -1 -12 -14 -12 -15 0 -20 -5 -17 -14 3 -8 -5
-19 -19 -26 -13 -8 -24 -19 -24 -27 0 -7 -11 -13 -25 -13 -16 0 -25 -6 -25
-15 0 -8 -6 -15 -14 -15 -15 0 -26 -21 -26 -50 0 -19 -27 -33 -51 -28 -9 2
-13 -5 -12 -19 3 -23 -20 -37 -47 -28 -13 4 -17 1 -16 -12 0 -10 6 -21 11 -25
6 -5 5 -11 -3 -16 -10 -7 -10 -11 3 -22 8 -7 15 -21 15 -31 0 -10 5 -21 10
-24 8 -5 7 -11 0 -20 -7 -8 -9 -23 -5 -35 3 -11 2 -20 -3 -20 -6 0 -13 18 -17
40 -9 55 -25 51 -20 -5 4 -36 2 -43 -10 -39 -9 4 -18 -1 -22 -12 -3 -11 -11
-22 -17 -26 -6 -4 -6 -16 3 -35 l13 -28 -22 20 c-13 12 -20 14 -18 6 5 -20
-17 -24 -35 -7 -14 15 -27 12 -27 -6 0 -5 5 -6 10 -3 6 3 10 1 10 -5 0 -7 -7
-9 -15 -6 -8 3 -21 9 -29 12 -11 4 -13 0 -9 -15 5 -21 -11 -30 -21 -12 -3 4
-17 6 -31 3 -18 -3 -25 0 -25 12 0 21 -26 21 -34 0 -4 -10 -14 -14 -26 -11
-12 3 -24 -1 -30 -11 -8 -15 -9 -15 -10 2 0 12 -5 16 -14 13 -8 -3 -17 -1 -20
6 -3 9 -7 9 -14 -1 -5 -7 -16 -10 -24 -7 -9 4 -19 2 -23 -4 -11 -19 -47 -12
-52 9 -4 15 -11 19 -24 15 -11 -4 -19 -2 -19 5 0 6 -5 8 -10 5 -18 -11 -80 15
-73 31 3 9 -2 14 -17 14 -11 0 -18 -4 -15 -10 3 -5 1 -10 -4 -10 -6 0 -11 7
-11 15 0 19 -28 34 -52 27 -15 -4 -19 0 -16 14 2 13 -3 19 -14 18 -10 -1 -18
3 -18 8 0 6 -9 8 -20 5 -11 -3 -20 -1 -20 4 0 5 5 9 10 9 6 0 5 8 -2 20 -7 10
-14 17 -17 15 -2 -3 -11 4 -21 15 -9 10 -28 22 -43 25 -15 4 -35 22 -47 42
-13 22 -26 33 -35 29 -8 -3 -18 1 -22 8 -5 7 -16 16 -27 19 -13 5 -17 14 -12
30 5 23 0 31 -61 87 -13 11 -28 20 -35 20 -6 0 -4 7 5 18 24 27 21 31 -17 22
-19 -4 -37 -6 -39 -3 -3 2 -21 1 -42 -3 -24 -4 -35 -11 -31 -20 3 -7 1 -16 -4
-19 -6 -4 -10 -14 -10 -25 0 -13 5 -17 20 -13 15 4 19 2 14 -10 -6 -18 23 -37
56 -37 12 0 19 -4 16 -9 -3 -5 0 -11 7 -14 8 -3 24 -34 36 -69 29 -81 52 -128
74 -150 9 -10 17 -25 17 -33 0 -8 -8 -15 -17 -14 -10 0 -13 3 -7 5 16 7 5 44
-12 44 -8 0 -14 6 -14 13 0 6 -5 4 -11 -6 -5 -9 -7 -22 -4 -27 3 -6 -4 -10
-15 -10 -16 0 -20 5 -16 15 3 8 2 15 -3 15 -5 0 -12 11 -15 25 -9 35 -26 31
-26 -6 0 -17 -8 -44 -17 -60 -18 -31 -39 -40 -29 -13 4 12 2 15 -9 10 -8 -3
-15 -2 -15 3 0 4 -11 6 -23 4 -16 -3 -31 -19 -46 -50 -15 -30 -31 -49 -51 -56
-17 -6 -30 -18 -30 -25 0 -8 -6 -12 -15 -9 -9 4 -21 -5 -31 -23 -10 -15 -23
-26 -30 -23 -6 2 -18 -2 -25 -10 -7 -7 -24 -11 -37 -9 -16 3 -23 1 -18 -6 4
-6 -1 -8 -14 -5 -11 3 -17 10 -13 16 3 5 1 7 -4 4 -6 -4 -31 -4 -56 -1 -37 5
-44 9 -40 25 6 21 -12 26 -20 7 -3 -8 -6 -6 -6 5 -1 14 -4 15 -20 5 -15 -9
-22 -9 -34 3 -8 8 -26 22 -40 32 -14 10 -28 30 -32 44 -3 14 -9 23 -12 20 -5
-6 -95 51 -101 63 -1 4 -10 16 -18 26 -14 17 -15 17 -10 2 8 -25 -7 -22 -42 7
-29 24 -29 24 -47 5 -19 -20 -55 -27 -55 -11 0 5 -7 17 -16 26 -23 23 -21 98
5 160 13 31 2 75 -19 75 -5 0 -10 5 -10 11 0 5 5 7 11 3 6 -3 15 0 20 7 12 19
11 29 -1 29 -5 0 -10 -7 -10 -16 0 -8 -5 -12 -10 -9 -6 4 -16 2 -23 -3 -13
-10 -89 -23 -144 -24 -18 -1 -30 -5 -27 -9 7 -11 -9 -18 -49 -21 -21 -1 -37
-6 -37 -11 0 -5 -13 -6 -30 -2 -29 6 -43 -8 -17 -18 6 -3 -7 -6 -30 -6 -31 -1
-43 -5 -43 -16 0 -8 -4 -15 -10 -15 -5 0 -10 3 -10 8 0 4 -14 8 -30 9 -22 2
-30 -2 -30 -14 0 -12 3 -13 14 -4 11 9 16 9 22 0 12 -20 -24 -40 -46 -26 -10
6 -17 14 -15 17 2 3 -5 6 -16 6 -10 0 -19 -6 -19 -12 0 -16 -64 -38 -68 -24
-2 6 -15 3 -30 -8 -43 -30 -52 -34 -52 -23 0 6 7 11 17 11 9 0 14 2 11 5 -3 3
-29 1 -59 -4 -30 -5 -46 -9 -36 -10 9 0 17 -7 17 -15 0 -10 -14 -13 -59 -11
-48 3 -63 0 -77 -16 -22 -24 -34 -24 -34 0 0 14 -5 18 -20 14 -11 -3 -20 -14
-20 -25 0 -15 -3 -17 -19 -8 -20 10 -22 25 -8 48 6 8 1 12 -17 12 -18 0 -24
-4 -20 -15 4 -9 0 -15 -10 -15 -9 0 -16 -5 -16 -11 0 -6 8 -8 19 -4 18 5 19 3
11 -26 -11 -37 -31 -54 -42 -36 -4 7 -1 13 7 15 17 4 21 22 5 22 -15 0 -12 50
3 50 6 1 1 7 -13 15 -14 8 -19 14 -12 15 24 0 12 16 -15 18 -43 3 -49 18 -19
46 l27 25 -35 -2 c-25 -1 -39 -8 -47 -24 -19 -35 -27 -27 -19 16 5 30 4 38 -6
34 -7 -2 -10 -11 -8 -18 3 -8 1 -22 -5 -32 -10 -17 -10 -17 -11 1 0 18 -2 18
-25 -4 -21 -20 -25 -21 -25 -6 0 9 5 14 10 11 6 -3 10 -2 10 3 0 6 -8 13 -17
17 -17 6 -17 7 1 20 11 8 16 21 13 30 -4 9 -1 15 8 15 8 0 15 7 15 15 0 8 5
15 10 15 6 0 10 4 10 10 0 5 -7 7 -15 4 -11 -4 -15 0 -15 16 0 16 4 20 15 16
8 -3 15 -1 15 3 0 15 -27 20 -40 8 -10 -10 -10 -7 -1 10 6 12 17 20 25 17 27
-10 28 29 0 55 l-26 26 16 -26 c18 -28 13 -39 -17 -39 -13 0 -17 5 -13 16 3 9
6 31 6 50 0 37 15 46 23 13 3 -11 14 -23 25 -26 11 -3 23 -14 25 -25 3 -11 10
-17 16 -13 16 9 13 35 -4 35 -8 0 -15 5 -15 10 0 6 -3 9 -7 9 -19 -3 -33 2
-33 12 0 6 9 8 23 4 17 -5 19 -4 7 4 -8 6 -15 18 -15 27 0 10 -6 19 -13 22 -7
2 -10 -2 -6 -12 4 -11 1 -16 -10 -16 -18 0 -22 36 -5 42 6 2 2 14 -10 30 -25
31 -26 39 -6 32 8 -4 15 -1 15 5 0 6 -9 11 -20 11 -23 0 -24 1 -9 34 10 20 9
30 -5 51 -15 23 -15 25 0 25 12 0 14 6 9 30 -4 20 -3 30 5 30 10 0 9 4 0 15
-7 8 -18 15 -26 15 -22 0 -24 16 -8 49 9 18 13 35 10 38 -8 8 -37 -17 -31 -27
3 -5 1 -11 -4 -14 -16 -10 -18 28 -3 47 10 11 11 17 4 17 -7 0 -12 7 -12 15 0
8 4 15 10 15 5 0 8 6 5 13 -12 36 -12 95 -1 116 8 13 11 32 8 43 -2 10 1 18 7
18 7 0 9 5 6 10 -3 6 2 10 11 10 16 0 16 1 -2 16 -11 9 -15 17 -8 20 6 3 9 16
6 31 -3 14 -1 23 4 20 5 -3 9 23 9 56 -1 71 4 99 15 92 4 -3 11 5 15 18 11 32
12 37 15 40 1 1 3 10 5 20 5 29 15 34 30 14 12 -17 13 -16 18 2 3 14 1 18 -9
14 -8 -3 -14 0 -14 6 0 6 0 14 0 19 0 4 5 7 10 7 6 0 9 3 8 6 -2 4 5 16 14 26
16 17 17 27 7 77 -6 32 -8 61 -5 64 3 3 6 -3 6 -14 0 -11 14 -34 30 -52 17
-18 30 -29 30 -23 0 5 -6 16 -14 24 -8 8 -11 18 -7 23 12 13 23 64 13 64 -4 0
-17 6 -27 14 -16 11 -17 17 -7 29 10 11 9 22 -1 53 -15 43 -12 70 7 77 10 4
12 -6 8 -41 -3 -37 -1 -45 8 -35 16 15 43 -8 35 -30 -3 -7 0 -19 7 -25 10 -8
13 -2 12 31 -1 23 -6 43 -13 43 -6 1 -14 2 -18 3 -5 0 -8 14 -9 30 -1 23 2 28
15 23 14 -5 14 -3 -2 21 -9 14 -17 42 -17 62 0 25 -4 35 -16 35 -9 0 -14 6
-11 13 2 6 17 12 33 12 16 1 28 4 27 8 -2 4 -3 11 -3 17 0 5 -10 9 -22 7 -30
-3 -38 38 -11 59 14 11 14 13 2 8 -13 -4 -15 0 -12 20 5 22 7 23 20 11 23 -23
27 -18 8 11 -9 15 -12 23 -6 20 7 -5 9 10 7 48 -4 44 -2 56 10 56 8 0 14 4 14
9 0 6 -9 8 -19 6 -15 -3 -18 1 -14 12 3 8 0 19 -8 25 -11 8 -11 9 3 5 9 -3 24
3 34 14 16 17 16 22 4 29 -10 7 -11 10 -3 10 7 0 12 3 12 8 -3 20 3 30 21 35
11 3 20 10 20 17 0 6 -4 9 -8 6 -4 -2 -8 4 -8 14 0 10 4 16 8 14 4 -3 8 4 8
16 0 12 5 18 10 15 12 -7 12 -3 4 19 -3 9 -12 16 -20 16 -19 0 -18 5 11 47 13
20 22 40 19 45 -3 4 2 8 10 8 9 0 16 7 16 15 0 8 4 15 9 15 5 0 13 9 16 21 4
11 18 24 32 30 13 5 23 15 20 22 -2 6 5 22 17 35 20 22 20 23 1 16 -21 -8 -49
-35 -105 -101 -19 -23 -38 -39 -42 -37 -4 3 -8 -1 -8 -9 0 -7 -17 -25 -39 -39
-33 -22 -38 -23 -34 -7 3 10 11 24 19 30 8 6 14 17 14 24 0 7 6 18 14 25 8 6
12 18 9 27 -4 9 5 24 22 39 16 13 25 27 22 30 -8 8 51 94 69 101 8 3 11 9 8
14 -3 5 0 9 5 9 6 0 11 7 11 15 0 8 7 15 15 15 8 0 17 11 21 25 3 14 17 34 30
44 15 12 24 29 24 48 0 19 10 37 30 55 17 14 30 24 30 22 0 -2 9 5 20 16 11
11 25 20 31 20 16 0 36 24 31 38 -2 6 1 12 6 12 5 0 12 6 15 14 4 9 0 13 -11
12 -9 -2 -19 -11 -20 -22 -5 -26 -18 -38 -33 -29 -9 6 -9 11 3 19 8 6 17 19
21 28 3 9 17 18 32 20 14 2 26 8 26 13 0 6 11 16 25 23 13 7 24 17 24 21 0 14
53 29 74 21 17 -6 17 -7 4 -13 -10 -3 -15 -13 -11 -25 3 -12 -1 -22 -11 -25
-9 -4 -16 -13 -16 -22 0 -8 -11 -20 -25 -25 -14 -5 -25 -16 -25 -25 0 -21 17
-19 23 3 3 9 5 1 6 -19 1 -22 -5 -42 -15 -50 -12 -10 -14 -23 -10 -50 3 -21 2
-41 -4 -44 -5 -3 -10 -11 -10 -16 0 -6 4 -7 10 -4 11 7 2 -23 -12 -42 -5 -7
-5 -14 1 -17 9 -6 45 48 39 59 -2 3 11 19 27 37 17 17 30 34 30 37 0 2 19 23
42 45 23 23 44 48 45 56 2 8 7 18 12 22 5 3 1 14 -9 25 -17 16 -18 16 -12 1 4
-12 2 -18 -7 -18 -22 0 -6 47 20 59 13 6 24 16 24 22 0 6 14 10 33 9 56 -3 63
-1 75 26 7 14 17 22 22 19 6 -4 7 -11 4 -17 -4 -6 -1 -9 7 -6 8 3 14 11 14 19
0 10 -13 14 -47 14 -49 -1 -61 16 -18 25 27 6 99 -26 107 -47 7 -17 23 -16 23
1 0 7 -9 16 -20 19 -24 6 -28 47 -5 47 8 0 15 -7 15 -16 0 -9 5 -13 13 -10 6
3 20 9 30 12 9 4 17 11 17 16 0 5 -4 6 -10 3 -5 -3 -10 -2 -10 4 0 27 76 41
98 19 10 -10 16 -7 28 10 10 15 24 22 37 20 21 -3 24 -14 16 -47 -2 -8 3 -16
12 -18 15 -4 19 12 19 75 0 24 1 25 24 16z m306 2 c0 -3 -4 -8 -10 -11 -5 -3
-10 -1 -10 4 0 6 5 11 10 11 6 0 10 -2 10 -4z m1110 -20 c0 -2 -17 -16 -37
-31 l-38 -27 33 31 c30 29 42 37 42 27z m-200 -19 c0 -2 -10 -12 -22 -23 l-23
-19 19 23 c18 21 26 27 26 19z m-922 -24 c-5 -25 -28 -28 -28 -4 0 12 6 21 16
21 9 0 14 -7 12 -17z m-123 -43 c-3 -6 -10 -10 -16 -10 -10 0 -12 33 -2 44 9
9 26 -22 18 -34z m1155 -5 c-7 -8 -17 -15 -23 -15 -5 0 -2 9 8 20 21 23 35 19
15 -5z m573 6 c20 -1 37 -5 37 -10 0 -10 -70 -12 -103 -4 -22 6 -13 22 11 18
9 -2 34 -4 55 -4z m-1476 -41 c-5 -31 -17 -36 -17 -7 0 15 4 27 10 27 5 0 9
-9 7 -20z m1323 16 c0 -2 -7 -9 -15 -16 -13 -11 -14 -10 -9 4 5 14 24 23 24
12z m-450 -20 c0 -3 -4 -8 -10 -11 -5 -3 -10 -1 -10 4 0 6 5 11 10 11 6 0 10
-2 10 -4z m400 -16 c0 -5 -5 -10 -11 -10 -5 0 -7 5 -4 10 3 6 8 10 11 10 2 0
4 -4 4 -10z m-1300 -25 c0 -14 -24 -27 -34 -18 -3 3 -1 14 5 25 11 20 29 16
29 -7z m1239 -24 c-35 -30 -49 -25 -15 5 15 14 31 23 34 20 2 -3 -6 -14 -19
-25z m-919 -21 c0 -5 -4 -10 -10 -10 -5 0 -10 5 -10 10 0 6 5 10 10 10 6 0 10
-4 10 -10z m-1302 -44 c15 2 19 1 10 -2 -10 -3 -18 -14 -18 -24 0 -10 -11 -32
-25 -48 -14 -17 -25 -34 -25 -40 0 -5 -7 -15 -15 -22 -22 -18 -18 -1 10 45 14
22 25 56 26 75 0 19 3 30 5 24 3 -6 17 -10 32 -8z m1582 4 c0 -5 -7 -7 -15 -4
-8 4 -15 8 -15 10 0 2 7 4 15 4 8 0 15 -4 15 -10z m-110 -34 c0 -3 -4 -8 -10
-11 -5 -3 -10 -1 -10 4 0 6 5 11 10 11 6 0 10 -2 10 -4z m77 -23 c-8 -7 -37 9
-31 19 3 5 12 4 20 -3 8 -6 13 -14 11 -16z m-187 -9 c0 -8 -5 -12 -10 -9 -6 4
-8 11 -5 16 9 14 15 11 15 -7z m55 -4 c-19 -21 -35 -18 -35 6 0 9 10 14 27 14
25 0 26 -1 8 -20z m395 -5 c-13 -16 -50 -21 -50 -7 0 8 52 31 59 25 2 -1 -2
-9 -9 -18z m-545 -35 c3 -5 -1 -10 -10 -10 -9 0 -13 5 -10 10 3 6 8 10 10 10
2 0 7 -4 10 -10z m495 -21 c0 -17 -5 -20 -25 -17 -16 3 -25 1 -25 -7 0 -10 9
-11 35 -5 28 6 35 5 35 -7 0 -11 4 -13 13 -6 32 24 116 37 133 20 7 -7 -20
-12 -41 -7 -5 1 -6 -2 -2 -6 13 -14 36 -13 48 2 13 16 39 19 39 4 0 -5 16 -10
35 -10 19 0 35 3 35 8 0 4 14 8 30 9 17 1 30 -1 30 -6 0 -10 76 -42 115 -48
16 -3 33 -10 37 -16 4 -6 10 1 14 17 6 27 9 28 52 23 32 -3 51 -12 67 -31 12
-14 25 -23 29 -19 3 3 6 -1 6 -9 0 -9 10 -18 21 -21 15 -4 20 -11 15 -22 -3
-9 -6 -22 -6 -29 0 -8 -10 -11 -29 -8 -17 2 -28 9 -25 16 5 13 -80 21 -99 9
-17 -11 -39 -10 -66 4 -14 7 -28 10 -33 7 -4 -3 -19 3 -33 12 -23 15 -25 15
-25 0 0 -15 -2 -15 -25 0 -16 11 -40 15 -70 12 -25 -2 -45 0 -45 4 0 3 -26 10
-57 14 -32 4 -68 13 -80 21 -22 14 -123 20 -142 8 -5 -2 -11 2 -15 10 -3 8
-15 15 -26 15 -29 0 -25 14 15 49 42 36 65 40 65 10z m-2090 -3 c0 -3 -4 -8
-10 -11 -5 -3 -10 -1 -10 4 0 6 5 11 10 11 6 0 10 -2 10 -4z m-10 -36 c0 -5
-7 -10 -16 -10 -8 0 -12 5 -9 10 3 6 10 10 16 10 5 0 9 -4 9 -10z m2913 -12
c36 -17 34 -23 -8 -24 -18 0 -32 3 -29 7 2 4 -5 11 -17 14 -14 5 -25 1 -33
-11 -10 -13 -15 -14 -21 -4 -17 28 58 41 108 18z m-2943 -38 c0 -5 -4 -10 -9
-10 -6 0 -13 5 -16 10 -3 6 1 10 9 10 9 0 16 -4 16 -10z m2975 -90 c3 -5 2
-10 -4 -10 -5 0 -13 5 -16 10 -3 6 -2 10 4 10 5 0 13 -4 16 -10z m296 -183
c-8 -8 -11 -3 -11 19 1 25 2 27 11 11 8 -14 8 -22 0 -30z m-119 -98 c40 -38
82 -108 72 -118 -7 -8 -54 42 -54 58 0 8 -10 25 -22 36 -23 21 -52 65 -43 65
3 0 24 -19 47 -41z m182 -268 c3 -4 -1 -17 -9 -27 -14 -18 -14 -18 -15 9 0 26
13 36 24 18z m-7 -128 c-3 -10 -5 -4 -5 12 0 17 2 24 5 18 2 -7 2 -21 0 -30z
m-3586 -36 c-8 -8 -11 -7 -11 4 0 20 13 34 18 19 3 -7 -1 -17 -7 -23z m3937
-74 c-2 -28 -6 -55 -10 -58 -10 -10 -19 82 -12 122 7 35 7 36 16 13 5 -13 7
-48 6 -77z m-73 -23 c-3 -5 -12 -10 -18 -10 -7 0 -6 4 3 10 19 12 23 12 15 0z
m168 -81 c4 -16 3 -18 -9 -8 -16 13 -19 29 -5 29 5 0 11 -9 14 -21z m-69 -21
c-4 -13 -11 -34 -17 -48 -9 -22 -11 -22 -15 -6 -2 10 1 23 7 29 6 6 11 19 11
29 0 10 5 18 11 18 6 0 8 -9 3 -22z m19 -108 c-9 -22 -20 -40 -24 -40 -5 0 -5
10 0 23 5 12 12 30 15 40 3 9 10 17 15 17 5 0 2 -18 -6 -40z m-62 -7 c-10 -17
-10 -16 -11 3 0 23 13 41 18 25 2 -6 -1 -18 -7 -28z m245 -11 c-11 -10 -15 4
-8 28 l7 25 3 -23 c2 -13 1 -26 -2 -30z m-4156 -212 c0 -5 -5 -10 -11 -10 -5
0 -7 5 -4 10 3 6 8 10 11 10 2 0 4 -4 4 -10z m3590 -41 c0 -11 -4 -17 -10 -14
-5 3 -10 13 -10 21 0 8 5 14 10 14 6 0 10 -9 10 -21z m-3716 -68 c-6 -7 -11 2
-17 34 l-6 30 13 -30 c8 -16 12 -32 10 -34z m3703 17 c-3 -8 -6 -5 -6 6 -1 11
2 17 5 13 3 -3 4 -12 1 -19z m63 -8 c0 -5 -4 -10 -10 -10 -5 0 -10 5 -10 10 0
6 5 10 10 10 6 0 10 -4 10 -10z m1677 -40 c41 -25 59 -61 66 -136 l6 -62 -33
-16 c-19 -9 -48 -16 -64 -16 -17 0 -59 -13 -94 -30 -34 -16 -71 -30 -81 -30
-23 0 -55 -16 -84 -42 -20 -19 -22 -19 -47 -3 -14 10 -33 15 -41 11 -21 -8
-62 58 -71 112 -6 35 -3 49 15 72 11 16 21 38 21 50 0 11 5 20 10 20 6 0 10 9
10 20 0 39 39 51 169 52 67 1 124 5 127 9 9 15 58 10 91 -11z m-1735 -25 c-2
-15 -9 -22 -18 -18 -8 3 -14 9 -14 15 0 5 4 7 9 4 5 -4 7 3 4 14 -4 15 -2 19
9 15 10 -4 13 -15 10 -30z m-76 -30 c-3 -8 0 -15 5 -15 6 0 9 -9 6 -20 -3 -12
1 -23 10 -29 13 -7 11 -9 -8 -14 -26 -7 -59 -56 -59 -88 0 -22 -11 -24 -28 -7
-18 18 -16 62 3 55 8 -4 17 -2 20 3 4 6 3 10 -2 10 -4 0 -9 12 -9 26 -2 21 2
25 17 21 14 -4 19 0 19 14 0 11 6 28 12 39 15 24 23 26 14 5z m94 -114 c0 -11
-7 -26 -15 -35 -9 -8 -17 -33 -20 -56 -4 -47 -24 -70 -60 -70 -14 0 -24 -4
-21 -9 3 -5 -3 -11 -14 -14 -20 -5 -29 -27 -11 -27 5 0 7 -9 4 -20 -3 -11 -10
-20 -15 -20 -6 0 -8 9 -5 20 3 10 0 21 -7 23 -8 3 -8 8 0 18 5 8 9 23 9 34 -2
18 16 46 30 45 42 -1 48 1 37 12 -18 18 -15 28 8 28 11 0 20 6 20 14 0 8 7 16
15 20 8 3 20 17 27 31 13 30 18 31 18 6z m-180 -73 c0 -6 3 -9 6 -5 4 3 13 0
21 -8 12 -13 11 -19 -13 -50 -27 -36 -51 -47 -40 -19 3 9 6 33 6 55 0 21 5 39
10 39 6 0 10 -5 10 -12z m-838 -71 c-12 -6 -25 -7 -29 -3 -11 10 18 25 35 18
13 -4 11 -8 -6 -15z m170 -4 c2 1 -3 -4 -11 -10 -18 -16 -38 -17 -46 -3 -11
18 5 30 29 20 13 -5 26 -8 28 -7z m-102 -3 c0 -5 -9 -10 -20 -10 -11 0 -20 5
-20 10 0 6 9 10 20 10 11 0 20 -4 20 -10z m40 -42 c0 -14 -21 -19 -35 -8 -8 6
-20 8 -26 4 -7 -4 -9 -3 -6 3 7 11 67 12 67 1z m325 2 c-3 -6 -1 -10 6 -10 7
0 9 -3 6 -6 -4 -4 -13 -2 -20 4 -8 7 -16 9 -19 6 -3 -3 -8 -1 -11 3 -3 5 6 10
19 11 15 1 22 -2 19 -8z m335 0 c0 -5 -4 -10 -10 -10 -5 0 -10 5 -10 10 0 6 5
10 10 10 6 0 10 -4 10 -10z m210 -45 c-7 -9 -15 -13 -17 -11 -7 7 7 26 19 26
6 0 6 -6 -2 -15z m-187 -37 c-3 -18 -10 -41 -15 -51 -5 -10 -6 -26 -3 -37 4
-12 -4 -35 -22 -62 -42 -64 -51 -69 -80 -40 -19 19 -22 27 -11 33 7 5 16 9 20
9 12 0 57 90 45 90 -7 0 -3 7 8 16 11 8 26 12 33 9 10 -4 12 0 8 11 -8 20 2
54 14 54 5 0 7 -15 3 -32z m47 2 c0 -5 -5 -10 -11 -10 -5 0 -7 5 -4 10 3 6 8
10 11 10 2 0 4 -4 4 -10z m93 -18 c-3 -9 -15 -30 -26 -45 -28 -41 -14 -44 22
-5 33 35 43 27 14 -11 -73 -95 -132 -161 -147 -162 -6 0 -19 -2 -28 -4 -10 -2
-18 1 -18 6 0 5 6 9 13 10 9 0 9 2 0 6 -17 6 8 55 39 75 13 8 46 47 73 85 46
66 73 86 58 45z m1520 -32 c-3 -17 1 -42 11 -61 13 -25 14 -34 4 -40 -27 -17
4 -20 87 -8 127 16 275 -6 275 -42 0 -6 11 -25 25 -41 18 -22 25 -40 24 -67
-3 -48 -14 -69 -63 -116 -59 -58 -96 -105 -96 -122 0 -9 15 -39 34 -67 56 -86
65 -146 34 -224 -20 -51 -20 -57 -6 -135 11 -57 13 -108 8 -167 -3 -47 -3 -89
1 -95 6 -8 51 -33 119 -65 28 -13 59 -94 75 -195 37 -235 33 -222 61 -207 15
8 23 2 45 -33 15 -24 38 -49 50 -55 12 -7 19 -8 15 -2 -3 5 1 12 9 16 8 3 15
13 15 21 0 27 50 104 72 110 12 5 28 0 41 -12 34 -30 75 -53 92 -53 10 0 23
16 32 40 15 38 18 40 47 34 42 -9 63 -24 77 -54 6 -14 15 -33 20 -43 5 -10 12
-67 16 -127 5 -92 4 -113 -10 -128 -8 -9 -25 -38 -36 -64 -19 -45 -53 -70 -72
-51 -4 4 -11 24 -13 43 -15 97 -56 213 -56 157 0 -9 -4 -17 -10 -17 -18 0 -48
-42 -55 -76 -5 -31 -9 -34 -39 -34 -39 0 -86 38 -86 69 0 11 -9 36 -20 56 -11
19 -17 35 -14 35 3 0 2 5 -2 11 -4 8 -9 7 -15 -2 -8 -11 -11 -11 -20 4 -7 12
-17 15 -35 11 -18 -5 -24 -2 -24 11 0 9 -7 23 -15 31 -8 9 -15 26 -15 39 0 36
-17 39 -25 5 -4 -16 -11 -30 -16 -30 -5 0 -9 -11 -9 -25 0 -13 -9 -41 -21 -61
-11 -20 -18 -43 -15 -51 14 -35 -22 -210 -61 -301 -19 -44 -19 -99 1 -146 21
-50 22 -212 1 -281 -33 -107 -116 -146 -187 -88 -87 72 -121 169 -80 224 68
93 82 185 37 245 -55 72 -217 129 -337 119 -63 -5 -73 -4 -102 18 -44 34 -55
98 -58 337 -2 167 0 203 16 250 10 30 19 78 20 105 1 28 9 64 18 80 20 38 17
154 -5 208 -14 32 -20 37 -50 37 -55 0 -65 21 -64 128 2 70 6 95 17 103 19 13
95 3 121 -15 23 -16 59 -10 59 10 0 19 10 18 25 -2 8 -12 20 -15 37 -11 31 8
42 31 27 55 -8 13 -8 32 -2 64 6 26 7 52 2 59 -12 19 0 30 20 20 13 -8 27 -2
59 27 22 20 42 46 44 57 3 15 11 20 39 21 75 2 118 25 119 63 0 20 -30 51 -49
51 -9 1 -34 9 -56 20 -46 22 -120 26 -140 7 -7 -7 -14 -22 -16 -32 -3 -12 -16
-22 -34 -26 -17 -4 -49 -13 -73 -18 -29 -8 -49 -8 -62 -1 -10 5 -49 10 -87 10
-100 1 -117 16 -114 106 2 70 25 139 43 128 5 -3 41 -6 80 -5 38 0 79 -4 90
-10 11 -6 31 -8 45 -4 22 5 25 10 23 53 -4 74 -2 82 29 112 16 16 31 35 35 42
3 7 15 27 25 43 11 17 20 38 20 49 1 15 4 16 16 6 9 -8 12 -22 8 -40z m-1796
-86 c-3 -3 -12 -4 -19 -1 -8 3 -5 6 6 6 11 1 17 -2 13 -5z m-681 -85 c3 -6 17
-8 32 -4 15 4 28 1 33 -6 4 -7 22 -14 41 -16 45 -4 60 -11 53 -23 -4 -6 5 -7
25 -4 20 4 30 3 30 -5 0 -7 6 -11 13 -10 32 4 40 -1 27 -16 -10 -12 -9 -15 7
-15 38 0 84 -22 79 -37 -4 -10 -1 -13 12 -9 13 4 19 1 19 -9 0 -9 -6 -13 -16
-10 -9 3 -31 1 -49 -4 -52 -15 -215 -16 -220 -1 -3 8 2 10 18 5 15 -5 20 -4
16 4 -4 6 -27 11 -52 11 -24 0 -44 4 -44 9 0 10 -104 44 -142 45 -17 1 -28 7
-28 15 0 10 -3 11 -14 2 -10 -9 -21 -9 -42 0 -22 8 -25 13 -14 18 8 3 15 12
16 19 2 30 5 33 23 27 11 -3 22 -2 25 4 3 5 15 7 25 4 10 -3 22 0 25 6 9 14
93 14 102 0z m1169 -59 l7 -25 -20 23 c-11 13 -18 30 -15 39 7 17 15 7 28 -37z
m2064 16 c12 -14 5 -66 -8 -66 -4 0 -17 7 -29 16 -21 15 -29 44 -15 57 11 12
40 8 52 -7z m-2137 -28 c-7 -7 -12 -8 -12 -2 0 14 12 26 19 19 2 -3 -1 -11 -7
-17z m38 12 c0 -5 -4 -10 -10 -10 -5 0 -10 5 -10 10 0 6 5 10 10 10 6 0 10 -4
10 -10z m-3966 -87 c-8 -35 -24 -54 -24 -29 0 18 17 56 26 56 2 0 1 -12 -2
-27z m3990 6 c-3 -5 -23 -8 -44 -7 -39 3 -42 13 -5 20 27 6 56 -2 49 -13z
m-3964 -37 c0 -5 -7 -17 -15 -28 -14 -18 -14 -17 -4 9 12 27 19 34 19 19z
m3921 -35 c-8 -8 -11 -7 -11 4 0 20 13 34 18 19 3 -7 -1 -17 -7 -23z m603
-104 c54 -158 56 -165 56 -217 0 -61 -12 -82 -57 -101 -29 -12 -43 -13 -64 -4
-44 18 -52 52 -47 220 l3 151 35 29 c19 16 35 29 36 29 1 0 18 -48 38 -107z
m-1605 81 c1 -1 1 -7 -2 -11 -9 -14 -77 -3 -77 12 0 10 10 12 38 8 20 -3 39
-7 41 -9z m-2844 -24 c-3 -5 -12 -10 -18 -10 -7 0 -6 4 3 10 19 12 23 12 15 0z
m3840 -19 c-3 -6 -16 -11 -28 -11 -21 0 -21 1 3 13 27 15 36 14 25 -2z m-3963
-13 c-7 -7 -12 -8 -12 -2 0 14 12 26 19 19 2 -3 -1 -11 -7 -17z m3909 -81
c-15 -15 -24 -2 -16 24 7 20 8 21 17 5 7 -12 7 -21 -1 -29z m-3771 8 c0 -8 -4
-15 -8 -15 -5 0 -9 7 -9 15 0 8 4 15 9 15 4 0 8 -7 8 -15z m5064 -20 c-4 -8
-8 -15 -10 -15 -2 0 -4 7 -4 15 0 8 4 15 10 15 5 0 7 -7 4 -15z m-44 -30 c0
-8 -7 -15 -15 -15 -8 0 -15 7 -15 15 0 8 7 15 15 15 8 0 15 -7 15 -15z m-5012
-9 c-10 -7 -18 -20 -18 -29 0 -9 -4 -18 -8 -21 -5 -3 -7 5 -6 17 1 12 3 28 3
35 1 6 11 12 24 12 20 -1 21 -2 5 -14z m3826 -11 c-4 -8 -8 -15 -10 -15 -2 0
-4 7 -4 15 0 8 4 15 10 15 5 0 7 -7 4 -15z m66 -40 c0 -8 -4 -15 -10 -15 -5 0
-10 7 -10 15 0 8 5 15 10 15 6 0 10 -7 10 -15z m1135 -26 c8 -26 -6 -42 -28
-33 -20 7 -22 25 -5 42 17 17 26 15 33 -9z m-7 -75 c12 -9 12 -12 -1 -22 -11
-9 -18 -8 -32 8 -15 17 -16 22 -4 36 11 13 14 13 18 3 2 -8 11 -19 19 -25z
m-5081 -32 c-10 -37 -27 -58 -27 -32 0 11 32 81 36 77 1 -1 -3 -21 -9 -45z
m3883 -152 c0 -16 -4 -30 -8 -30 -5 0 -7 14 -4 30 2 17 6 30 8 30 2 0 4 -13 4
-30z m-3666 -29 c19 -7 19 -8 -1 -13 -14 -4 -24 0 -27 8 -6 15 -1 16 28 5z
m3309 -11 c3 -11 0 -23 -6 -27 -6 -4 -1 -10 12 -15 26 -9 19 -28 -11 -28 -12
0 -18 3 -15 7 4 3 1 13 -6 21 -9 11 -9 16 -1 19 7 2 10 13 7 23 -3 11 -1 20 5
20 5 0 12 -9 15 -20z m-2723 0 c0 -5 -4 -10 -9 -10 -6 0 -13 5 -16 10 -3 6 1
10 9 10 9 0 16 -4 16 -10z m-726 -25 c-9 -14 -20 -22 -26 -19 -5 3 1 14 13 25
29 25 33 24 13 -6z m113 -42 c-3 -10 -5 -2 -5 17 0 19 2 27 5 18 2 -10 2 -26
0 -35z m474 -6 c-13 -13 -15 1 -4 30 7 17 8 17 11 -1 2 -10 -1 -23 -7 -29z
m-111 -3 c0 -2 -9 -4 -20 -4 -11 0 -20 4 -20 9 0 5 9 7 20 4 11 -3 20 -7 20
-9z m740 7 c26 -2 39 -66 29 -144 -11 -85 -18 -109 -29 -102 -13 8 -20 -9 -9
-25 6 -10 9 -11 9 -2 0 6 5 12 11 12 11 0 9 -16 -6 -52 -4 -11 -3 -18 4 -18 6
0 11 7 11 15 0 8 5 15 10 15 13 0 13 -26 -1 -51 -7 -13 -16 -18 -27 -14 -9 3
-3 -7 14 -23 22 -23 32 -27 43 -18 12 9 13 8 8 -6 -3 -10 -2 -18 3 -18 6 0 10
-7 10 -15 0 -8 9 -30 20 -50 27 -49 25 -58 -9 -40 -17 8 -38 16 -48 18 -10 1
-53 14 -95 27 -70 23 -78 27 -78 51 0 15 12 37 30 54 27 26 71 123 49 110 -5
-4 -9 -12 -9 -19 0 -16 -79 -90 -87 -82 -4 3 3 16 14 29 24 26 46 67 40 73 -6
7 -37 -7 -37 -16 0 -14 -31 -40 -41 -34 -5 3 -2 12 6 21 21 20 11 30 -12 12
-9 -8 -5 4 10 26 31 46 33 55 11 55 -12 0 -15 6 -10 25 6 23 5 24 -13 13 -19
-11 -18 -36 2 -50 6 -4 3 -13 -7 -24 -17 -16 -19 -16 -28 -1 -7 13 -13 15 -28
7 -16 -9 -18 -7 -16 13 3 29 43 112 61 127 8 6 20 8 26 4 7 -4 9 -3 6 3 -6 10
17 37 70 84 10 8 32 15 48 13 17 -1 37 -2 45 -3z m2237 -43 c-3 -8 -6 -5 -6 6
-1 11 2 17 5 13 3 -3 4 -12 1 -19z m-3387 -32 c0 -2 -7 -7 -16 -10 -8 -3 -12
-2 -9 4 6 10 25 14 25 6z m3350 -10 c0 -8 10 -16 23 -19 19 -3 20 -4 5 -11
-10 -5 -25 -6 -33 -2 -17 6 -21 46 -5 46 6 0 10 -6 10 -14z m84 -2 c23 -22 9
-39 -15 -18 -10 9 -16 21 -13 25 7 12 10 11 28 -7z m-1111 -19 c10 -4 16 -14
13 -21 -3 -7 0 -17 7 -21 7 -5 20 -20 30 -36 14 -21 15 -32 6 -48 -10 -19 -8
-20 10 -14 17 5 21 2 21 -14 0 -11 9 -29 21 -40 16 -14 19 -25 13 -43 -4 -12
-7 -29 -6 -35 2 -8 -3 -10 -14 -6 -12 4 -15 3 -10 -5 4 -7 14 -12 23 -12 10 0
14 -6 10 -19 -2 -10 0 -27 6 -37 9 -17 9 -18 -6 -5 -9 7 -17 18 -17 23 0 15
-47 68 -54 61 -3 -4 -6 1 -6 10 0 10 -4 17 -10 17 -10 0 -14 -13 -11 -42 4
-33 -14 -18 -32 26 -10 25 -25 50 -33 57 -11 9 -14 7 -14 -14 0 -13 7 -30 15
-37 15 -12 12 -30 -5 -30 -8 0 -25 39 -23 50 1 5 -10 92 -21 168 -8 51 7 80
41 77 15 -1 36 -5 46 -10z m-2213 1 c0 -9 -32 -36 -42 -36 -6 0 0 9 13 20 25
21 29 23 29 16z m1962 -8 c-6 -6 -20 -13 -29 -14 -16 -2 -16 -1 1 12 24 17 45
19 28 2z m1245 6 c-3 -3 -12 -4 -19 -1 -8 3 -5 6 6 6 11 1 17 -2 13 -5z
m-2407 -24 c0 -5 -5 -10 -11 -10 -5 0 -7 5 -4 10 3 6 8 10 11 10 2 0 4 -4 4
-10z m2640 -77 c0 -20 -24 -11 -28 10 -2 12 1 15 12 11 9 -3 16 -13 16 -21z
m-3570 3 c0 -2 -8 -10 -17 -17 -16 -13 -17 -12 -4 4 13 16 21 21 21 13z m3240
-5 c0 -5 -9 -7 -20 -4 -11 3 -20 7 -20 9 0 2 9 4 20 4 11 0 20 -4 20 -9z
m-3098 -43 c-7 -7 -12 -8 -12 -2 0 6 3 14 7 17 3 4 9 5 12 2 2 -3 -1 -11 -7
-17z m718 7 c-7 -9 -15 -13 -19 -10 -3 3 1 10 9 15 21 14 24 12 10 -5z m112
-96 c-12 -5 -22 -15 -22 -23 0 -15 -21 -26 -47 -26 -14 0 -15 2 -1 18 9 9 13
22 11 29 -3 7 9 13 29 15 42 4 58 -3 30 -13z m2696 2 c3 -8 -1 -12 -9 -9 -7 2
-15 10 -17 17 -3 8 1 12 9 9 7 -2 15 -10 17 -17z m-2678 -56 c0 -8 -9 -19 -20
-25 -24 -13 -27 2 -4 24 19 20 24 20 24 1z m1318 -21 c19 -9 32 -23 32 -34 0
-10 3 -26 7 -36 6 -17 5 -17 -17 -1 -30 21 -40 21 -40 1 0 -8 -4 -12 -10 -9
-19 12 -11 43 13 48 l22 4 -22 8 c-13 4 -23 14 -23 21 0 17 0 17 38 -2z
m-2178 -8 c0 -13 -32 -77 -37 -73 -8 8 17 77 28 77 5 0 9 -2 9 -4z m855 -15
c3 -5 1 -12 -5 -16 -5 -3 -10 1 -10 9 0 18 6 21 15 7z m1551 -58 c-11 -11 -19
6 -11 24 8 17 8 17 12 0 3 -10 2 -21 -1 -24z m-52 -25 c6 -25 3 -28 -18 -28
-18 0 -29 9 -40 32 -21 42 -21 43 17 17 17 -12 26 -16 20 -9 -7 8 -13 21 -13
29 0 24 26 -8 34 -41z m-2024 -3 c0 -8 -4 -15 -10 -15 -5 0 -10 7 -10 15 0 8
5 15 10 15 6 0 10 -7 10 -15z m1860 -15 c0 -4 3 -16 7 -26 5 -13 3 -16 -10
-11 -10 4 -17 2 -17 -5 0 -6 -9 1 -20 15 -25 31 -28 56 -5 37 13 -11 14 -10 9
5 -6 15 -4 16 14 6 12 -7 22 -16 22 -21z m-1820 -6 c0 -11 6 -14 20 -9 14 5
20 2 20 -9 0 -9 7 -16 15 -16 8 0 19 -9 25 -20 6 -11 14 -19 18 -18 15 4 53
-24 49 -36 -7 -19 63 6 78 28 7 9 17 16 23 16 6 0 23 12 38 28 16 17 28 23 31
15 3 -7 17 -10 39 -6 29 5 33 3 28 -11 -5 -12 0 -16 20 -16 25 0 31 -8 27 -38
-2 -10 2 -11 15 -4 19 10 44 -6 44 -28 0 -6 6 -10 13 -8 16 4 124 -63 194
-119 29 -24 57 -43 63 -43 16 0 155 -80 187 -108 15 -13 35 -29 44 -36 25 -17
69 -86 69 -107 0 -11 4 -19 8 -19 4 0 8 -9 9 -20 2 -22 -7 -26 -24 -9 -6 6
-33 12 -59 14 -27 2 -69 8 -93 14 -25 5 -49 8 -53 5 -4 -3 -8 0 -8 5 0 6 -11
11 -25 11 -14 0 -36 6 -48 14 -12 8 -37 16 -55 18 -19 2 -42 14 -55 28 -30 34
-66 54 -63 35 1 -7 8 -20 15 -29 12 -14 11 -16 -5 -17 -12 0 -5 -7 19 -18 l38
-18 -23 -15 c-22 -14 -22 -16 -4 -33 12 -13 17 -14 16 -4 -5 33 0 40 23 33 12
-4 25 -11 28 -16 4 -6 15 -6 29 2 19 10 21 9 18 -6 -2 -10 -13 -23 -25 -30
-13 -6 -33 -22 -46 -35 -12 -14 -31 -29 -42 -34 -19 -8 -19 -8 -1 -12 10 -3
23 0 29 6 16 16 30 13 23 -4 -3 -8 0 -15 5 -15 7 0 9 9 6 21 -7 25 55 95 73
84 7 -4 5 -11 -5 -21 -8 -9 -13 -20 -9 -25 3 -5 -2 -16 -10 -25 -19 -18 -21
-61 -4 -66 8 -3 5 -13 -10 -33 -12 -15 -20 -30 -18 -33 6 -5 76 67 76 79 0 4
5 9 11 11 5 2 11 19 13 37 1 19 10 40 21 47 28 20 38 6 16 -24 -22 -32 -37
-92 -22 -92 5 0 13 5 16 10 4 6 15 8 26 5 13 -4 19 -2 19 9 0 8 4 17 9 20 5 3
8 -17 6 -44 -1 -28 1 -53 6 -56 15 -9 10 -34 -6 -34 -8 0 -15 5 -15 10 0 18
-18 10 -23 -10 -4 -17 -2 -19 21 -13 15 3 42 18 59 32 29 23 32 31 28 61 -3
19 -2 28 1 20 4 -8 11 -17 15 -20 4 -3 4 -32 0 -65 -7 -46 -6 -64 5 -76 8 -8
14 -22 14 -30 1 -9 4 -8 12 5 11 19 11 19 24 1 8 -10 14 -14 14 -8 0 6 18 14
39 18 46 8 61 31 28 44 -12 5 -29 18 -37 30 -19 28 -30 27 -30 -4 0 -17 4 -23
14 -19 8 3 17 1 21 -5 3 -7 -2 -11 -14 -11 -11 0 -23 -4 -26 -10 -10 -17 -28
-11 -21 6 5 14 4 15 -9 4 -20 -17 -29 -7 -16 18 6 11 8 33 5 49 -4 20 0 34 15
50 12 12 21 29 21 38 0 27 16 16 25 -17 8 -26 15 -33 35 -33 18 0 27 -8 35
-30 5 -16 14 -33 19 -36 5 -4 6 -11 2 -17 -7 -13 10 -63 21 -60 5 2 9 -1 10
-5 1 -4 10 -15 18 -24 15 -15 18 -15 33 1 15 15 15 16 -5 16 -18 0 -21 6 -21
30 1 33 18 42 18 9 0 -15 5 -19 19 -14 11 3 26 -1 35 -11 12 -12 26 -14 51
-10 19 4 35 11 35 17 0 17 38 51 49 44 6 -3 11 1 11 11 0 13 3 14 15 4 8 -7
15 -9 15 -6 0 4 9 2 20 -4 15 -8 20 -8 20 1 0 7 10 9 29 6 24 -5 28 -3 24 12
-5 21 12 37 22 21 4 -6 12 -5 21 5 9 8 19 13 24 10 4 -3 6 4 3 15 -7 25 5 26
23 3 13 -17 14 -16 11 7 -1 14 -6 30 -10 36 -4 7 0 17 8 24 11 9 19 8 37 -4
26 -19 42 -21 32 -5 -4 8 0 9 15 4 17 -5 21 -2 21 14 0 12 -4 21 -10 21 -5 0
-10 6 -10 13 0 6 -16 29 -36 50 -33 34 -34 55 -1 22 13 -13 16 -10 22 22 4 23
9 32 14 24 11 -18 83 -20 89 -2 4 11 -3 13 -31 8 -39 -6 -63 11 -28 20 12 3
21 13 21 22 1 14 2 14 14 -2 16 -21 29 -9 15 13 -13 22 -11 40 6 40 15 0 19
-10 16 -42 -1 -10 2 -18 6 -18 11 0 10 49 -1 73 -10 21 -44 22 -74 1 -13 -9
-31 -13 -42 -9 -11 4 -20 2 -20 -4 0 -6 5 -11 10 -11 6 0 10 -5 10 -11 0 -5
-5 -7 -10 -4 -6 4 -17 2 -25 -5 -9 -8 -15 -8 -20 0 -3 6 -10 8 -15 5 -4 -3 -6
4 -3 15 3 11 9 18 13 15 4 -2 5 7 2 22 -4 19 -2 24 8 18 8 -5 11 -4 6 3 -5 8
14 64 31 91 1 2 23 7 49 12 35 7 50 6 56 -3 6 -10 11 -9 18 3 5 9 23 22 39 29
26 10 33 10 46 -4 9 -8 15 -21 14 -28 -4 -31 2 -46 21 -51 15 -4 20 0 20 14 0
11 7 19 18 19 16 1 16 1 0 14 -12 9 -14 16 -6 24 7 7 17 4 33 -13 14 -16 25
-21 31 -15 13 13 74 1 81 -16 6 -15 58 10 85 42 15 19 68 39 91 35 4 0 7 3 7
9 0 5 7 10 15 10 8 0 15 4 15 9 0 16 52 23 62 9 6 -9 10 -6 15 12 l7 25 7 -25
c4 -14 7 -33 8 -43 1 -17 0 -17 -15 -2 -15 15 -17 15 -29 -2 -6 -10 -15 -28
-18 -41 -4 -18 -2 -22 9 -18 8 3 14 2 15 -2 0 -4 2 -18 5 -32 l4 -25 -19 22
c-23 28 -31 21 -25 -25 4 -36 4 -36 -7 -9 -8 21 -14 25 -24 17 -7 -6 -11 -19
-8 -29 2 -10 -3 -25 -11 -34 -9 -9 -20 -37 -25 -64 -5 -26 -14 -49 -21 -51 -8
-3 -7 -9 2 -20 11 -13 11 -14 0 -8 -8 5 -18 1 -27 -10 -12 -18 -14 -17 -26 8
-15 35 -29 27 -29 -18 0 -24 4 -33 12 -28 7 4 8 3 4 -4 -4 -7 -12 -12 -17 -12
-15 0 -39 -27 -31 -34 3 -4 -1 -4 -11 0 -13 4 -17 1 -17 -15 0 -12 -4 -21 -10
-21 -5 0 -10 -6 -10 -14 0 -9 -8 -12 -25 -8 -14 2 -25 9 -25 14 0 6 7 8 15 5
8 -4 17 -2 20 3 4 6 -5 10 -19 10 -14 0 -26 5 -26 10 0 6 -5 10 -11 10 -6 0
-9 -6 -6 -13 3 -8 1 -20 -3 -28 -5 -7 -5 -16 -1 -19 13 -8 18 -47 6 -46 -5 1
-10 8 -10 16 0 8 -8 16 -18 18 -9 2 -17 -2 -17 -8 0 -6 -7 -18 -15 -26 -8 -8
-12 -21 -9 -29 4 -8 1 -15 -5 -15 -6 0 -11 -7 -11 -15 0 -8 -2 -15 -4 -15 -2
0 -12 -3 -21 -6 -13 -6 -16 -2 -13 19 1 14 -1 26 -7 27 -5 0 -11 -16 -13 -36
-3 -29 1 -37 17 -41 22 -6 37 -33 18 -33 -7 0 -17 4 -23 9 -5 6 -25 17 -44 25
l-36 15 4 -37 c6 -63 13 -70 27 -27 7 22 13 34 14 27 1 -7 5 -11 10 -8 5 3 14
-1 22 -10 10 -13 9 -16 -9 -21 -12 -3 -22 -10 -22 -15 0 -5 5 -6 10 -3 6 4 10
-8 10 -29 0 -20 -3 -36 -7 -36 -14 0 -35 17 -33 26 1 5 -3 10 -9 12 -6 2 -11
-3 -11 -12 0 -9 -9 -21 -20 -28 -11 -7 -20 -24 -20 -38 -1 -24 -1 -24 -15 -6
-14 18 -15 17 -11 -22 l4 -42 -28 15 c-32 17 -50 4 -30 -20 10 -13 8 -15 -15
-15 -22 0 -26 4 -22 19 5 21 -8 49 -19 38 -4 -4 -7 -30 -6 -57 l1 -50 -30 17
c-21 13 -29 26 -31 48 l-1 30 -4 -32 c-3 -20 -10 -33 -19 -33 -8 0 -14 -7 -14
-16 0 -9 -5 -12 -11 -8 -8 5 -10 -3 -7 -25 2 -17 1 -31 -4 -31 -4 0 -8 -9 -8
-19 0 -11 -4 -22 -10 -26 -5 -3 -6 -13 -3 -22 4 -11 2 -14 -8 -11 -16 6 -17
67 -1 77 16 10 19 103 4 108 -7 3 -15 -7 -18 -25 -8 -39 -34 -32 -34 10 0 18
-4 27 -11 22 -6 -3 -9 -18 -6 -32 6 -32 -1 -52 -18 -52 -23 0 -36 -72 -15 -85
6 -4 7 -11 4 -17 -4 -6 -10 -6 -17 1 -7 7 -15 7 -22 1 -9 -7 -17 -5 -26 6 -10
12 -10 17 0 23 14 9 5 61 -11 61 -6 0 -8 7 -4 15 3 8 1 15 -4 15 -6 0 -10 -7
-10 -15 0 -8 -4 -15 -10 -15 -5 0 -10 -22 -10 -50 0 -38 -4 -50 -15 -50 -8 0
-15 -7 -15 -15 0 -8 -4 -15 -10 -15 -13 0 -13 6 0 30 9 16 7 19 -12 18 -63 -2
-68 0 -61 32 5 26 3 29 -12 24 -16 -6 -16 -18 0 -56 5 -13 2 -15 -14 -11 -12
3 -17 11 -14 19 9 24 -17 15 -27 -8 -9 -20 -10 -19 -9 12 2 54 0 60 -14 60 -7
0 -20 -19 -28 -42 -16 -42 -17 -43 -60 -42 -32 0 -48 -4 -57 -18 -18 -25 -32
-22 -32 7 0 26 -9 32 -26 15 -6 -6 -15 -6 -24 0 -12 8 -12 10 -1 10 11 0 10 5
-4 20 -10 11 -22 17 -28 13 -6 -4 -7 4 -3 22 6 22 4 26 -9 22 -8 -4 -26 -2
-40 3 -16 6 -25 6 -25 0 0 -6 7 -10 15 -10 20 0 19 -19 0 -27 -9 -3 -22 2 -30
13 -13 18 -14 18 -15 2 0 -10 -7 -18 -16 -18 -9 0 -18 -9 -21 -20 -3 -11 -9
-20 -14 -20 -5 0 -7 11 -3 25 5 20 1 27 -20 36 -27 13 -37 33 -12 23 10 -4 14
1 13 14 0 11 -6 18 -12 17 -5 -2 -23 -6 -39 -10 -22 -5 -26 -9 -17 -18 19 -19
13 -26 -20 -24 -27 2 -30 5 -25 27 2 14 8 33 11 43 6 13 3 16 -9 11 -13 -5
-16 0 -16 25 0 33 8 39 28 19 9 -9 13 -8 17 5 12 29 34 8 28 -27 -4 -25 -1
-35 11 -39 14 -6 15 -1 10 33 -5 28 -3 40 5 40 8 0 7 5 -3 15 -12 12 -20 13
-35 5 -30 -15 -49 -12 -27 5 15 11 16 15 5 15 -8 0 -28 -13 -44 -30 -16 -16
-37 -30 -47 -30 -10 0 -18 -5 -18 -11 0 -8 -5 -8 -15 1 -24 20 -18 29 23 32
31 2 38 7 41 28 3 24 2 24 -16 7 -11 -9 -24 -17 -30 -17 -15 0 -22 34 -12 53
11 18 6 22 -38 32 -35 7 -40 14 -21 33 17 17 8 15 -40 -8 -49 -24 -52 -24 -52
-5 0 9 6 15 13 14 21 -4 64 19 71 37 9 24 0 29 -19 10 -9 -9 -26 -16 -38 -16
-22 0 -22 1 2 19 23 18 24 20 7 36 -13 13 -14 20 -5 25 6 4 9 12 5 18 -3 6 -2
13 4 17 18 11 -1 27 -26 21 -17 -5 -26 -1 -34 15 -12 22 -5 70 12 80 7 5 7 12
0 25 -10 17 -11 17 -20 -6 -6 -14 -14 -38 -17 -55 l-7 -30 -16 34 c-17 33 -16
33 16 62 l32 28 -33 -6 c-17 -3 -37 -10 -43 -15 -8 -5 -13 -2 -16 10 -5 19
-44 27 -53 11 -4 -5 -11 -9 -16 -9 -15 0 17 30 33 30 7 0 26 12 42 26 23 21
26 28 15 35 -8 5 -20 7 -27 4 -8 -3 -18 -5 -23 -5 -4 0 -6 -7 -3 -15 7 -17 0
-19 -25 -6 -14 8 -17 21 -16 71 3 66 -10 86 -33 52 -14 -21 -42 -31 -42 -14 0
11 20 38 20 27 0 -11 20 16 20 27 0 4 -10 7 -21 5 -12 -1 -24 4 -26 11 -3 6 0
12 7 12 6 0 8 -4 5 -10 -3 -5 -2 -10 4 -10 20 0 18 16 -5 33 -16 12 -24 14
-24 6 0 -7 -3 -9 -6 -6 -4 4 -2 12 3 19 18 22 21 78 6 78 -8 0 -11 -4 -8 -10
7 -11 -16 -37 -63 -69 -41 -29 -57 -18 -20 14 24 20 26 28 18 49 -7 20 -6 27
6 34 12 7 14 17 9 41 -3 17 -11 31 -16 31 -5 0 -9 20 -9 44 0 25 -4 47 -8 50
-13 8 -14 86 -1 86 5 0 7 5 4 10 -3 6 3 10 14 10 12 0 21 5 21 10 0 6 5 10 10
10 6 0 10 -7 10 -16z m-146 -49 c-4 -8 -11 -15 -16 -15 -6 0 -5 6 2 15 7 8 14
15 16 15 2 0 1 -7 -2 -15z m3156 5 c0 -5 -4 -10 -10 -10 -5 0 -10 5 -10 10 0
6 5 10 10 10 6 0 10 -4 10 -10z m-3110 -45 c0 -8 -4 -15 -10 -15 -5 0 -7 7 -4
15 4 8 8 15 10 15 2 0 4 -7 4 -15z m-4 -72 c-10 -10 -19 5 -10 18 6 11 8 11
12 0 2 -7 1 -15 -2 -18z m2584 2 c0 -8 -2 -15 -4 -15 -2 0 -6 7 -10 15 -3 8
-1 15 4 15 6 0 10 -7 10 -15z m-2640 -5 c0 -5 -7 -10 -15 -10 -8 0 -15 5 -15
10 0 6 7 10 15 10 8 0 15 -4 15 -10z m100 -29 c0 -6 -5 -13 -10 -16 -6 -4 -7
-12 -4 -18 5 -9 4 -9 -6 0 -7 6 -10 19 -7 27 7 17 27 22 27 7z m-156 -25 c-3
-9 -10 -16 -15 -16 -6 0 -5 9 1 21 13 24 24 20 14 -5z m98 -48 c-6 -6 -15 -8
-19 -4 -4 4 -1 11 7 16 19 12 27 3 12 -12z m938 2 c16 -14 18 -20 9 -20 -16 0
-39 19 -39 32 0 12 5 10 30 -12z m-880 -30 c0 -5 -5 -10 -11 -10 -5 0 -7 5 -4
10 3 6 8 10 11 10 2 0 4 -4 4 -10z m3010 1 c0 -6 -4 -13 -10 -16 -5 -3 -10 1
-10 9 0 9 5 16 10 16 6 0 10 -4 10 -9z m-3105 -30 c-3 -6 -11 -11 -17 -11 -6
0 -6 6 2 15 14 17 26 13 15 -4z m45 -91 c-6 -11 -15 -20 -21 -20 -6 0 -6 7 1
20 6 11 15 20 21 20 6 0 6 -7 -1 -20z m2768 -21 c-3 -8 -7 -3 -11 10 -4 17 -3
21 5 13 5 -5 8 -16 6 -23z m-277 -2 c-10 -9 -11 -8 -5 6 3 10 9 15 12 12 3 -3
0 -11 -7 -18z m166 -29 c-3 -8 -6 -5 -6 6 -1 11 2 17 5 13 3 -3 4 -12 1 -19z
m-167 5 c0 -5 -5 -15 -10 -23 -8 -12 -10 -11 -10 8 0 12 5 22 10 22 6 0 10 -3
10 -7z m140 -13 c6 -11 8 -20 6 -20 -3 0 -10 9 -16 20 -6 11 -8 20 -6 20 3 0
10 -9 16 -20z m-877 -18 c-3 -12 -12 -22 -19 -22 -19 0 -18 10 4 30 21 21 23
20 15 -8z m-1834 -4 c-9 -16 -14 -19 -17 -9 -2 7 2 17 9 22 20 13 21 11 8 -13z
m1905 -54 c3 -8 2 -12 -4 -9 -6 3 -10 10 -10 16 0 14 7 11 14 -7z m3777 -6
c10 -13 18 -35 19 -49 0 -34 38 -79 49 -60 6 9 18 11 40 6 23 -5 31 -3 31 7 0
8 8 14 18 15 26 2 92 -197 103 -312 1 -5 -2 -46 -5 -90 -4 -44 -8 -147 -10
-230 -2 -82 -7 -158 -11 -167 -9 -22 -48 -23 -66 -2 -7 9 -13 41 -14 73 0 37
-6 65 -19 84 -22 32 -20 32 -57 6 -29 -20 -30 -23 -24 -78 5 -48 2 -62 -14
-83 -58 -73 -117 -7 -120 132 -1 30 -7 63 -15 75 -8 13 -13 59 -14 130 0 61
-6 144 -12 185 -16 110 0 215 52 353 13 33 43 36 69 5z m-3181 -49 c0 -11 -4
-17 -10 -14 -5 3 -10 13 -10 21 0 8 5 14 10 14 6 0 10 -9 10 -21z m-36 -29 c7
-24 6 -24 -8 -6 -9 11 -16 27 -16 35 0 21 16 2 24 -29z m383 18 c-3 -8 -6 -5
-6 6 -1 11 2 17 5 13 3 -3 4 -12 1 -19z m-1870 -62 c-17 -48 -43 -64 -33 -20
4 16 14 44 24 62 22 43 29 14 9 -42z m910 51 c7 0 10 -4 8 -8 -3 -3 5 -10 18
-14 21 -7 20 -8 -8 -12 -19 -3 -33 1 -41 11 -6 9 -17 16 -23 16 -7 0 -9 5 -6
11 4 6 14 7 24 3 9 -3 21 -7 28 -7z m-800 -14 c-9 -9 -19 -14 -23 -11 -10 10
6 28 24 28 15 0 15 -1 -1 -17z m74 -35 c-8 -40 -30 -50 -24 -11 7 43 12 55 22
49 5 -3 6 -20 2 -38z m629 -3 c11 -13 10 -14 -4 -9 -9 3 -16 10 -16 15 0 13 6
11 20 -6z m50 0 c0 -8 -4 -15 -9 -15 -5 0 -11 7 -15 15 -3 9 0 15 9 15 8 0 15
-7 15 -15z m-1460 -15 c0 -5 -5 -10 -11 -10 -5 0 -7 5 -4 10 3 6 8 10 11 10 2
0 4 -4 4 -10z m1352 -19 c7 -10 23 -21 36 -25 12 -4 22 -12 22 -17 0 -15 -33
-24 -38 -11 -2 7 -10 18 -17 26 -8 7 -11 16 -8 20 4 3 -3 6 -15 6 -12 0 -22 5
-22 10 0 17 28 11 42 -9z m-512 -1 c0 -5 -5 -10 -11 -10 -5 0 -7 5 -4 10 3 6
8 10 11 10 2 0 4 -4 4 -10z m-824 -42 c-3 -13 -5 -26 -5 -29 -1 -3 -15 -6 -31
-7 -17 0 -28 4 -25 9 4 5 15 9 27 9 13 0 18 5 15 14 -6 15 1 26 15 26 4 0 6
-10 4 -22z m734 6 c0 -8 -4 -12 -10 -9 -5 3 -10 10 -10 16 0 5 5 9 10 9 6 0
10 -7 10 -16z m1178 -5 c-2 -6 -8 -10 -13 -10 -5 0 -11 4 -13 10 -2 6 4 11 13
11 9 0 15 -5 13 -11z m372 1 c0 -5 -5 -10 -11 -10 -5 0 -7 5 -4 10 3 6 8 10
11 10 2 0 4 -4 4 -10z m-1110 -25 c0 -8 -4 -15 -10 -15 -5 0 -10 7 -10 15 0 8
5 15 10 15 6 0 10 -7 10 -15z m-160 -26 c9 -16 7 -19 -10 -19 -15 0 -20 7 -20
26 0 27 14 25 30 -7z m868 -17 c2 -7 -3 -12 -12 -12 -9 0 -16 7 -16 16 0 17
22 14 28 -4z m-1855 -30 c-10 -10 -20 -17 -22 -16 -6 5 20 34 30 34 5 0 1 -8
-8 -18z m87 8 c-8 -5 -24 -10 -35 -10 -17 0 -17 2 -5 10 8 5 24 10 35 10 17 0
17 -2 5 -10z m-10 -30 c0 -5 0 -13 0 -17 0 -4 -6 -8 -15 -9 -9 -1 -15 5 -15
17 0 10 7 19 15 19 8 0 15 -4 15 -10z m1050 -9 c0 -5 -9 -11 -20 -14 -20 -5
-26 3 -13 16 9 10 33 8 33 -2z m-1200 -19 c0 -5 -9 -17 -20 -27 -22 -20 -26
-14 -10 16 11 19 30 26 30 11z m30 -42 c0 -5 -4 -10 -9 -10 -6 0 -13 5 -16 10
-3 6 1 10 9 10 9 0 16 -4 16 -10z m1800 -20 c0 -5 -2 -10 -4 -10 -3 0 -8 5
-11 10 -3 6 -1 10 4 10 6 0 11 -4 11 -10z m184 -26 c4 -11 1 -14 -11 -12 -10
2 -19 11 -21 21 -4 21 24 13 32 -9z m-214 0 c0 -8 -4 -12 -10 -9 -5 3 -10 10
-10 16 0 5 5 9 10 9 6 0 10 -7 10 -16z m1420 -13 c19 -10 35 -22 36 -27 1 -5
4 -27 8 -50 l8 -41 97 -13 c78 -11 112 -21 178 -55 55 -29 91 -41 111 -39 59
7 82 -63 96 -296 2 -30 7 -65 11 -78 7 -20 5 -21 -16 -14 -32 12 -50 50 -43
87 19 87 -14 205 -56 205 -11 0 -20 7 -20 15 0 8 -5 15 -10 15 -6 0 -8 -10 -4
-24 6 -27 -14 -46 -27 -25 -5 8 -6 -1 -2 -25 4 -24 2 -41 -6 -45 -6 -4 -13
-17 -16 -29 -8 -44 -50 -102 -73 -102 -12 0 -12 -3 -2 -15 9 -11 10 -18 1 -28
-6 -8 -7 -17 -3 -21 4 -4 0 -6 -8 -4 -10 2 -14 -4 -13 -17 1 -11 0 -14 -3 -7
-9 19 -24 14 -24 -7 0 -11 -4 -22 -10 -26 -5 -3 -7 -11 -4 -18 3 -8 -6 -25
-18 -39 -13 -13 -32 -42 -43 -63 -11 -20 -32 -51 -47 -69 -15 -17 -28 -36 -28
-43 0 -7 -6 -16 -13 -20 -7 -4 -21 -21 -30 -36 -10 -16 -26 -36 -35 -46 -9
-10 -24 -28 -32 -41 -57 -88 -209 -250 -297 -317 -40 -31 -73 -59 -73 -63 0
-3 -13 -22 -30 -40 -16 -18 -30 -38 -30 -42 0 -5 -5 -6 -10 -3 -8 5 -7 11 1
21 8 10 8 14 0 14 -6 0 -11 9 -11 20 0 27 -10 25 -37 -7 -13 -14 -26 -23 -31
-18 -4 4 -1 10 6 12 6 3 12 16 12 29 0 17 -8 27 -27 35 -36 14 -86 -11 -118
-59 -13 -20 -31 -45 -38 -54 -15 -20 -37 -24 -37 -8 0 6 4 10 9 10 5 0 15 16
21 36 7 19 20 40 31 47 10 6 19 19 19 27 0 8 11 27 24 43 13 15 29 41 36 57 7
17 16 30 20 30 18 0 14 36 -5 53 -18 17 -18 18 -2 13 10 -3 25 -6 33 -6 8 0
14 -10 14 -25 0 -14 -5 -25 -12 -25 -6 0 -8 -3 -5 -7 4 -3 0 -17 -8 -30 -9
-13 -13 -23 -11 -23 8 0 61 83 75 118 7 17 17 32 22 32 5 0 9 6 9 13 0 12 40
97 50 107 11 10 28 80 24 97 -2 10 7 38 20 63 13 25 36 68 49 97 20 40 29 51
44 47 14 -4 24 4 39 33 10 21 22 40 25 43 4 3 12 23 18 45 6 22 18 50 27 63 9
13 14 34 12 47 -5 24 16 43 27 24 8 -13 -50 -176 -70 -196 -22 -21 -14 -25 22
-12 17 6 43 27 57 48 25 36 26 41 20 137 -3 54 -5 124 -5 154 0 30 -3 69 -8
87 -7 26 -6 33 5 33 8 0 14 5 14 11 0 5 -4 8 -9 5 -4 -3 -6 6 -3 19 2 14 8 25
12 25 8 0 23 39 21 54 -1 4 8 17 21 28 14 12 18 22 12 26 -6 4 -9 26 -6 50 5
48 17 53 72 23z m-3155 -30 c-3 -6 -14 -11 -23 -11 -13 0 -13 2 4 14 21 15 30
14 19 -3z m190 -21 c3 -5 -1 -10 -10 -10 -9 0 -13 5 -10 10 3 6 8 10 10 10 2
0 7 -4 10 -10z m1465 -4 c0 -3 -4 -8 -10 -11 -5 -3 -10 -1 -10 4 0 6 5 11 10
11 6 0 10 -2 10 -4z m-1730 -20 c0 -3 -4 -8 -10 -11 -5 -3 -10 -1 -10 4 0 6 5
11 10 11 6 0 10 -2 10 -4z m60 -30 c0 -8 -7 -16 -15 -20 -13 -4 -14 -2 -5 14
13 23 20 26 20 6z m2280 4 c0 -5 -4 -10 -10 -10 -5 0 -10 5 -10 10 0 6 5 10
10 10 6 0 10 -4 10 -10z m-2140 -4 c0 -2 -11 -11 -25 -20 -21 -14 -25 -14 -25
-2 0 8 8 17 18 19 25 7 32 7 32 3z m-30 -96 c-6 -12 -14 -19 -17 -17 -2 3 1
15 7 27 6 12 14 19 17 17 2 -3 -1 -15 -7 -27z m1426 17 c4 -4 -7 -7 -25 -7
-18 0 -30 4 -27 8 6 10 42 9 52 -1z m494 -9 c0 -19 -2 -20 -10 -8 -13 19 -13
30 0 30 6 0 10 -10 10 -22z m-1828 -50 c-7 -7 -12 -8 -12 -2 0 14 12 26 19 19
2 -3 -1 -11 -7 -17z m1082 -35 c-3 -27 -8 -49 -9 -51 -1 -1 -10 7 -21 19 -14
15 -15 20 -4 17 11 -2 15 5 13 30 -1 23 3 32 13 32 12 0 14 -9 8 -47z m131 -2
c-3 -12 -11 -19 -16 -16 -5 4 -5 14 2 26 13 26 23 18 14 -10z m-1055 9 c0 -5
-9 -14 -20 -20 -24 -13 -26 -7 -4 14 18 18 24 20 24 6z m770 -6 c0 -8 -4 -12
-10 -9 -5 3 -10 10 -10 16 0 5 5 9 10 9 6 0 10 -7 10 -16z m-910 -4 c0 -5 -8
-10 -17 -10 -15 0 -16 2 -3 10 19 12 20 12 20 0z m213 -10 c-3 -11 -9 -17 -14
-14 -14 8 -10 34 5 34 9 0 12 -7 9 -20z m927 -1 c0 -6 -4 -7 -10 -4 -5 3 -10
11 -10 16 0 6 5 7 10 4 6 -3 10 -11 10 -16z m-843 -11 c-3 -8 -6 -5 -6 6 -1
11 2 17 5 13 3 -3 4 -12 1 -19z m-3629 -27 c19 -54 -38 -67 -59 -14 -13 35
-11 41 14 45 30 5 33 3 45 -31z m3412 30 c0 -12 -20 -25 -27 -18 -7 7 6 27 18
27 5 0 9 -4 9 -9z m590 -6 c0 -8 -4 -15 -10 -15 -5 0 -7 7 -4 15 4 8 8 15 10
15 2 0 4 -7 4 -15z m-250 -7 c-1 -18 -37 -64 -45 -57 -7 7 27 69 38 69 4 0 7
-6 7 -12z m-290 -8 c0 -5 -7 -10 -16 -10 -8 0 -12 5 -9 10 3 6 10 10 16 10 5
0 9 -4 9 -10z m11 -36 c-25 -32 -28 -14 -4 23 9 14 19 21 21 14 2 -6 -6 -23
-17 -37z m95 1 c-32 -28 -41 -31 -30 -12 16 27 27 37 43 37 11 0 8 -7 -13 -25z
m354 4 c0 -11 -27 -12 -34 -1 -2 4 4 9 15 9 10 1 19 -2 19 -8z m-110 -6 c0 -5
-8 -17 -17 -28 -14 -18 -15 -18 -9 -2 3 10 6 23 6 28 0 5 5 9 10 9 6 0 10 -3
10 -7z m270 -18 c14 -19 14 -19 -2 -6 -10 7 -18 18 -18 24 0 6 1 8 3 6 1 -2 9
-13 17 -24z m-210 -10 c0 -9 -7 -18 -15 -21 -8 -4 -15 -12 -15 -19 0 -6 -13
-12 -30 -13 -17 0 -28 4 -25 9 4 5 15 9 26 9 12 0 23 10 29 25 10 28 30 34 30
10z m34 -17 c-9 -14 -23 2 -17 18 4 12 8 13 14 3 4 -7 5 -17 3 -21z m2846 -13
c0 -15 -11 -32 -32 -46 -29 -21 -31 -21 -24 -3 5 10 11 27 13 37 3 9 9 17 14
17 5 0 9 7 9 16 0 8 5 12 10 9 6 -3 10 -17 10 -30z m-3135 15 c-3 -5 -13 -10
-21 -10 -8 0 -14 5 -14 10 0 6 9 10 21 10 11 0 17 -4 14 -10z m376 -71 l-10
-24 0 26 c-1 14 2 29 6 33 12 12 14 -9 4 -35z m82 26 c-3 -9 -8 -14 -10 -11
-3 3 -2 9 2 15 9 16 15 13 8 -4z m87 5 c0 -5 -5 -10 -11 -10 -5 0 -7 5 -4 10
3 6 8 10 11 10 2 0 4 -4 4 -10z m1970 -20 c0 -5 -4 -10 -10 -10 -5 0 -10 5
-10 10 0 6 5 10 10 10 6 0 10 -4 10 -10z m-2343 -34 c-4 -9 -13 -16 -21 -16
-11 0 -12 5 -3 24 13 27 34 19 24 -8z m150 12 c-3 -8 -6 -5 -6 6 -1 11 2 17 5
13 3 -3 4 -12 1 -19z m623 -18 c0 -5 -5 -10 -11 -10 -5 0 -7 5 -4 10 3 6 8 10
11 10 2 0 4 -4 4 -10z m2165 -27 c-38 -52 -77 -93 -87 -93 -14 0 22 62 55 98
44 46 67 42 32 -5z m-2657 0 c-5 -25 -28 -28 -28 -4 0 12 6 21 16 21 9 0 14
-7 12 -17z m-288 -25 c0 -19 -18 -44 -25 -36 -4 3 0 15 7 27 15 24 18 26 18 9z
m2898 -293 c-12 -14 -23 -23 -25 -21 -6 5 29 46 39 46 4 0 -2 -11 -14 -25z
m-872 -59 c-3 -16 1 -27 11 -31 12 -4 14 -8 5 -17 -15 -15 -22 -8 -29 36 -4
24 -2 36 6 36 7 0 10 -10 7 -24z m794 -30 c0 -3 -4 -8 -10 -11 -5 -3 -10 -1
-10 4 0 6 5 11 10 11 6 0 10 -2 10 -4z m-30 -19 c0 -2 -10 -12 -22 -23 l-23
-19 19 23 c18 21 26 27 26 19z m-720 -30 c0 -4 -4 -15 -9 -25 -5 -9 -14 -29
-20 -45 l-11 -27 -35 22 -35 23 21 18 c12 10 24 15 28 12 3 -3 -1 -10 -9 -16
-13 -8 -13 -10 0 -19 11 -7 16 -5 18 10 2 11 8 20 13 20 5 0 9 7 9 15 0 9 -6
12 -15 9 -8 -4 -15 -1 -15 5 0 5 13 9 30 8 16 -1 30 -5 30 -10z m650 -2 c0 -8
3 -15 8 -15 12 0 86 -69 80 -75 -7 -8 -38 5 -38 16 0 5 -5 9 -11 9 -12 0 -29
17 -46 48 -16 26 -16 32 -3 32 6 0 10 -7 10 -15z m-808 -32 c-7 -3 -20 -12
-29 -21 -9 -10 -20 -17 -24 -17 -4 0 -11 -3 -15 -7 -11 -11 -24 -10 -24 2 0 6
7 10 15 10 8 0 15 5 15 11 0 5 4 8 8 5 4 -2 19 4 32 14 14 10 27 16 30 13 3
-3 -1 -8 -8 -10z m832 -62 c31 -17 33 -27 6 -41 -11 -6 -20 -17 -20 -25 0 -8
-6 -15 -14 -15 -8 0 -30 -18 -49 -40 -19 -22 -39 -40 -45 -40 -7 0 -12 -6 -12
-14 0 -7 -9 -16 -21 -19 -12 -3 -18 -10 -14 -16 3 -7 0 -8 -9 -5 -9 3 -16 11
-16 18 0 20 39 76 54 76 9 0 13 9 11 25 -1 14 1 25 5 25 5 0 6 9 3 20 -4 14 0
20 11 20 9 0 16 7 16 15 0 8 5 15 10 15 6 0 10 7 10 16 0 10 6 14 15 10 10 -3
15 1 16 12 0 14 2 13 8 -3 5 -11 20 -27 35 -34z m-834 3 c0 -8 -5 -12 -10 -9
-6 4 -8 11 -5 16 9 14 15 11 15 -7z m70 6 c0 -5 -4 -10 -9 -10 -5 0 -12 -13
-16 -30 -4 -16 -11 -30 -17 -30 -6 0 -8 -9 -5 -20 3 -13 0 -20 -9 -20 -17 0
-18 33 -1 62 26 46 57 71 57 48z m-119 -30 c6 0 7 5 3 12 -4 7 -3 8 5 4 9 -6
9 -11 0 -22 -14 -17 -29 -9 -28 14 0 11 3 12 6 5 2 -7 9 -13 14 -13z m152 -5
c-7 -19 -33 -20 -33 -1 0 15 20 26 32 19 4 -2 5 -10 1 -18z m-23 -40 c0 -16
-30 -55 -42 -55 -10 0 25 69 35 70 4 0 7 -7 7 -15z m-3124 -124 c8 -46 15 -56
24 -41 4 7 13 9 19 6 6 -4 9 -12 6 -17 -4 -5 1 -9 9 -9 9 0 16 -5 16 -11 0 -6
-9 -8 -20 -4 -19 6 -20 4 -14 -22 4 -15 7 -33 7 -40 0 -7 7 -13 14 -13 10 0
12 6 8 20 -8 24 -2 25 30 4 14 -9 25 -25 25 -35 0 -10 9 -25 21 -33 26 -18 17
-36 -17 -36 -16 0 -24 -5 -22 -12 7 -19 37 -22 56 -5 16 14 23 11 82 -38 42
-36 74 -55 92 -55 20 0 28 -7 37 -31 6 -18 11 -45 11 -61 0 -18 4 -27 11 -23
6 4 8 22 4 46 -4 25 -3 39 4 39 6 0 12 -7 12 -15 3 -28 4 -33 12 -41 14 -14 7
-43 -12 -49 -28 -9 -49 4 -60 36 -11 33 -26 40 -16 8 6 -18 4 -20 -17 -14 -38
12 -86 36 -96 48 -6 7 -6 21 -1 36 9 23 10 24 32 5 22 -19 22 -19 4 2 -12 15
-25 20 -42 16 -19 -3 -23 -8 -15 -17 7 -9 6 -16 -4 -24 -12 -10 -26 -2 -75 45
-33 31 -67 61 -75 68 -8 6 -27 38 -41 71 -15 33 -31 68 -36 77 -5 10 -9 26 -9
36 0 11 -9 27 -20 37 -20 18 -20 18 2 37 l22 18 -22 41 c-12 23 -19 45 -16 50
9 16 63 -60 70 -100z m2944 70 c-12 -23 -40 -29 -40 -8 0 11 40 36 48 31 2 -1
-1 -12 -8 -23z m-3055 9 c3 -5 1 -10 -4 -10 -6 0 -11 5 -11 10 0 6 2 10 4 10
3 0 8 -4 11 -10z m-65 -10 c0 -5 -7 -10 -16 -10 -8 0 -12 5 -9 10 3 6 10 10
16 10 5 0 9 -4 9 -10z m3082 -60 c4 -44 -26 -106 -34 -72 -3 11 -2 26 2 32 5
7 6 19 3 27 -4 10 -11 8 -33 -7 -24 -17 -29 -18 -34 -5 -3 8 0 16 7 17 7 0 17
2 22 2 25 3 35 17 25 36 -15 28 -13 31 14 19 18 -9 25 -21 28 -49z m118 31 c0
-5 -9 -19 -20 -32 -21 -26 -27 -10 -8 21 13 21 28 27 28 11z m-3105 -11 c-3
-5 -11 -10 -16 -10 -6 0 -7 5 -4 10 3 6 11 10 16 10 6 0 7 -4 4 -10z m-85 -28
c0 -5 -12 -14 -27 -21 l-28 -11 24 20 c26 22 31 24 31 12z m210 -12 c0 -5 -2
-10 -4 -10 -3 0 -8 5 -11 10 -3 6 -1 10 4 10 6 0 11 -4 11 -10z m2936 -37 c-2
-15 -8 -29 -15 -31 -6 -2 -11 -8 -11 -14 0 -12 -26 -38 -39 -38 -5 0 -13 10
-16 21 -7 21 7 39 31 39 6 0 20 11 30 25 10 14 20 25 21 25 1 0 0 -12 -1 -27z
m696 -5 c-7 -7 -12 -8 -12 -2 0 14 12 26 19 19 2 -3 -1 -11 -7 -17z m-871 -28
c8 0 8 -4 -1 -15 -13 -16 -1 -20 48 -16 31 2 29 -31 -2 -45 -28 -13 -53 -3
-41 17 6 9 4 11 -8 6 -9 -3 -19 -1 -23 5 -5 7 -2 8 6 3 9 -6 10 -2 5 16 -4 13
-12 27 -17 30 -5 3 -6 14 -2 24 7 17 8 17 15 -3 5 -12 14 -22 20 -22z m-3053
-25 c-11 -12 -38 8 -38 28 l0 21 22 -21 c12 -13 19 -25 16 -28z m2999 6 c-3
-22 -25 -51 -38 -51 -16 0 -9 49 9 59 25 15 32 13 29 -8z m153 -74 c0 -22 -37
-49 -62 -45 -32 4 -30 33 2 32 14 -1 29 5 33 12 10 18 27 18 27 1z m-100 -6
c0 -6 -4 -12 -8 -15 -5 -3 -9 1 -9 9 0 8 4 15 9 15 4 0 8 -4 8 -9z m-217 -48
c-3 -10 -10 -24 -16 -31 -5 -6 -10 -30 -11 -51 0 -29 5 -45 22 -59 18 -16 20
-22 9 -30 -17 -14 -57 -4 -57 14 0 8 4 14 8 14 4 0 8 9 9 21 1 14 -3 19 -13
15 -9 -3 -14 1 -14 12 0 10 -4 22 -9 28 -6 5 -1 17 15 31 13 12 24 19 24 15 0
-4 7 4 16 16 18 26 26 28 17 5z m157 -8 c0 -8 7 -15 15 -15 9 0 12 6 9 15 -4
8 -2 15 4 15 6 0 13 -13 17 -30 4 -16 10 -30 15 -30 14 0 7 -44 -10 -57 -25
-20 -33 -15 -16 12 9 13 16 27 16 30 0 10 -43 -6 -62 -23 -12 -9 -18 -11 -18
-4 0 7 5 12 11 12 5 0 8 4 4 9 -3 5 5 11 17 13 21 3 20 4 -6 10 -20 4 -34 0
-47 -13 -38 -38 -55 -11 -19 31 11 13 26 20 35 16 9 -3 15 0 15 9 0 8 5 15 10
15 6 0 10 -7 10 -15z m85 -5 c-3 -5 -13 -10 -21 -10 -8 0 -14 5 -14 10 0 6 9
10 21 10 11 0 17 -4 14 -10z m19 -25 c-4 -8 -10 -12 -15 -9 -14 8 -10 24 6 24
9 0 12 -6 9 -15z m-2688 -145 c24 -25 32 -50 16 -50 -10 0 -39 28 -72 69 -14
17 -35 43 -47 58 -13 16 -23 33 -23 40 0 11 41 -27 126 -117z m2912 96 c-7 -8
-15 -12 -17 -11 -5 6 10 25 20 25 5 0 4 -6 -3 -14z m-25 -64 c-3 -12 -9 -22
-14 -22 -5 0 -3 11 3 25 13 30 20 28 11 -3z m-340 4 c6 -15 -1 -26 -15 -26 -4
0 -8 9 -8 20 0 23 15 27 23 6z m-48 -36 c8 -24 -1 -40 -21 -40 -8 0 -12 -5 -9
-10 3 -5 0 -10 -8 -10 -8 0 -25 -11 -38 -25 -29 -30 -44 -32 -29 -5 6 11 8 25
5 30 -3 6 -2 10 4 10 6 0 8 6 5 13 -3 8 2 14 12 14 10 0 25 9 33 21 20 27 38
28 46 2z m-2086 -91 c-13 -25 -17 -24 -15 5 0 14 6 22 13 19 9 -4 10 -10 2
-24z"/>
<path d="M5550 8226 c0 -9 5 -16 10 -16 6 0 10 4 10 9 0 6 -4 13 -10 16 -5 3
-10 -1 -10 -9z"/>
<path d="M3780 6765 c-11 -13 -7 -15 23 -15 36 0 56 13 37 25 -5 3 -10 1 -10
-6 0 -10 -3 -10 -12 -1 -16 16 -23 15 -38 -3z"/>
<path d="M3838 6733 c7 -3 16 -2 19 1 4 3 -2 6 -13 5 -11 0 -14 -3 -6 -6z"/>
<path d="M3743 6718 c-26 -12 -32 -33 -7 -24 9 3 23 6 32 6 14 0 14 2 3 9 -11
7 -11 9 0 14 8 3 10 5 4 6 -5 0 -20 -5 -32 -11z"/>
<path d="M3936 6695 c-3 -8 -1 -15 4 -15 6 0 10 7 10 15 0 8 -2 15 -4 15 -2 0
-6 -7 -10 -15z"/>
<path d="M3690 6650 c-23 -15 16 -25 43 -11 20 11 20 11 -6 6 -19 -4 -26 -2
-22 5 8 12 4 12 -15 0z"/>
<path d="M3886 6644 c-9 -24 -7 -28 9 -14 17 14 20 30 6 30 -5 0 -12 -7 -15
-16z"/>
<path d="M3503 6638 c-13 -6 -23 -15 -23 -20 0 -13 9 -10 32 12 24 22 23 23
-9 8z"/>
<path d="M3455 6610 c3 -5 8 -10 11 -10 2 0 4 5 4 10 0 6 -5 10 -11 10 -5 0
-7 -4 -4 -10z"/>
<path d="M3245 6530 c-3 -5 -1 -10 4 -10 6 0 11 5 11 10 0 6 -2 10 -4 10 -3 0
-8 -4 -11 -10z"/>
<path d="M4645 6387 c-20 -19 -20 -19 5 -12 33 9 45 21 28 27 -7 3 -22 -4 -33
-15z"/>
<path d="M3110 6360 c-13 -9 -13 -11 0 -20 13 -8 12 -10 -2 -10 -13 0 -18 -8
-17 -27 0 -27 1 -27 9 -5 5 12 14 22 19 22 13 0 23 32 14 41 -5 5 -15 4 -23
-1z"/>
<path d="M3210 6350 c0 -5 5 -10 10 -10 6 0 10 5 10 10 0 6 -4 10 -10 10 -5 0
-10 -4 -10 -10z"/>
<path d="M3174 6308 l-19 -23 23 19 c21 18 27 26 19 26 -2 0 -12 -10 -23 -22z"/>
<path d="M4797 6313 c-9 -2 -15 -8 -12 -13 6 -10 45 -1 45 11 0 9 -4 10 -33 2z"/>
<path d="M4918 6293 c7 -3 16 -2 19 1 4 3 -2 6 -13 5 -11 0 -14 -3 -6 -6z"/>
<path d="M3002 6200 c-17 -28 -15 -32 8 -18 11 7 20 18 20 25 0 19 -14 16 -28
-7z"/>
<path d="M2990 6060 c0 -5 9 -10 20 -10 11 0 20 5 20 10 0 6 -9 10 -20 10 -11
0 -20 -4 -20 -10z"/>
<path d="M2895 5929 c-11 -16 -1 -19 13 -3 7 8 8 14 3 14 -5 0 -13 -5 -16 -11z"/>
<path d="M6156 5807 c3 -10 9 -15 12 -12 3 3 0 11 -7 18 -10 9 -11 8 -5 -6z"/>
<path d="M2750 5420 c0 -5 5 -10 10 -10 6 0 10 5 10 10 0 6 -4 10 -10 10 -5 0
-10 -4 -10 -10z"/>
<path d="M2801 5324 c0 -11 3 -14 6 -6 3 7 2 16 -1 19 -3 4 -6 -2 -5 -13z"/>
<path d="M6287 5113 c-15 -18 -13 -73 3 -73 7 0 22 81 16 87 -2 2 -10 -5 -19
-14z"/>
<path d="M2750 5090 c0 -5 5 -10 10 -10 6 0 10 5 10 10 0 6 -4 10 -10 10 -5 0
-10 -4 -10 -10z"/>
<path d="M2806 5061 c-4 -5 3 -7 14 -4 23 6 26 13 6 13 -8 0 -17 -4 -20 -9z"/>
<path d="M2800 5030 c0 -5 7 -10 16 -10 8 0 12 5 9 10 -3 6 -10 10 -16 10 -5
0 -9 -4 -9 -10z"/>
<path d="M2840 5019 c0 -5 5 -7 10 -4 6 3 10 8 10 11 0 2 -4 4 -10 4 -5 0 -10
-5 -10 -11z"/>
<path d="M2848 4973 c-20 -5 -13 -33 8 -33 8 0 14 -4 14 -8 0 -5 7 -9 15 -9
20 0 19 7 -2 23 -12 9 -14 13 -5 14 7 0 10 5 7 10 -6 10 -9 11 -37 3z"/>
<path d="M2780 4915 c0 -11 5 -27 10 -35 8 -12 10 -12 10 5 0 11 -5 27 -10 35
-8 12 -10 12 -10 -5z"/>
<path d="M2815 4910 c-3 -5 1 -10 9 -10 9 0 16 5 16 10 0 6 -4 10 -9 10 -6 0
-13 -4 -16 -10z"/>
<path d="M2896 4891 c-7 -11 4 -43 18 -53 15 -11 26 -10 26 2 0 6 -6 10 -14
10 -8 0 -17 7 -20 16 -8 22 -8 26 4 19 6 -3 10 -1 10 4 0 13 -17 14 -24 2z"/>
<path d="M3058 4851 c-36 -18 -87 -89 -70 -100 7 -4 8 -12 2 -21 -14 -21 -12
-30 5 -30 8 0 15 -4 15 -10 0 -5 -11 -10 -24 -10 -20 0 -24 5 -22 23 1 13 5
28 9 34 10 16 -30 42 -54 36 -10 -3 -19 -9 -19 -14 0 -5 -3 -8 -7 -7 -5 1 -19
-4 -32 -11 -20 -11 -25 -11 -32 0 -6 9 -6 0 -2 -21 8 -41 24 -60 52 -60 11 0
23 -5 26 -10 4 -6 10 -8 15 -5 4 3 15 -6 23 -19 12 -17 13 -26 4 -35 -8 -8 -8
-11 1 -11 7 0 12 -7 12 -16 0 -8 -4 -12 -10 -9 -5 3 -10 1 -10 -4 0 -6 4 -11
9 -11 5 0 7 -9 4 -20 -3 -12 2 -29 11 -39 9 -10 13 -21 9 -24 -9 -9 -41 -9
-45 1 -5 11 -78 43 -78 34 0 -4 6 -17 14 -28 8 -12 11 -26 7 -33 -7 -10 -14
-9 -37 5 -16 10 -35 24 -41 33 -11 13 -13 12 -13 -5 1 -10 13 -34 29 -51 30
-36 90 -53 181 -53 30 0 52 -6 60 -15 7 -8 21 -15 31 -15 11 0 19 -6 19 -13 0
-9 13 -14 36 -15 20 -1 43 -7 52 -14 9 -7 13 -8 10 -3 -4 6 3 17 14 24 18 11
20 11 15 -2 -3 -9 1 -18 9 -21 24 -9 36 -7 28 5 -4 7 3 10 17 9 13 -1 35 -2
49 -1 19 1 22 3 10 10 -8 6 -18 7 -22 5 -4 -3 -8 0 -8 7 0 7 10 9 25 7 14 -3
28 -1 31 4 3 5 12 7 19 4 7 -2 16 1 19 9 7 18 66 34 101 27 20 -3 32 0 43 14
8 10 16 14 18 9 3 -6 20 -9 38 -7 27 3 35 0 40 -15 5 -15 16 -20 48 -21 30 -2
50 -9 70 -29 48 -46 39 -52 -74 -54 -202 -2 -185 3 -163 -51 11 -28 -64 -33
-212 -14 -57 7 -55 -7 3 -22 25 -7 61 -24 79 -38 28 -21 44 -25 92 -24 32 1
86 2 121 2 34 1 62 5 62 10 0 4 15 8 34 8 19 0 38 5 42 11 4 7 29 9 73 5 36
-4 90 -8 118 -10 29 -2 59 -8 65 -13 7 -5 20 -9 28 -8 8 1 22 3 31 3 17 2 99
78 99 93 0 5 9 9 19 9 25 0 46 30 67 92 8 27 23 50 33 53 15 4 17 12 11 48 -3
24 -9 48 -13 54 -4 6 -3 14 3 18 5 3 10 24 10 45 0 33 -3 38 -17 33 -16 -6
-16 -5 -4 10 8 10 11 20 8 24 -4 3 2 18 13 33 11 16 20 37 20 47 0 10 4 23 10
29 6 6 6 15 0 24 -8 12 -11 11 -16 -7 -7 -26 -41 -31 -77 -11 -33 17 -67 19
-61 3 3 -7 1 -16 -5 -19 -10 -6 -24 24 -19 42 2 5 -1 9 -7 9 -5 -1 -10 -10 -9
-19 0 -10 -3 -18 -8 -18 -4 0 -8 9 -8 19 0 11 -5 23 -10 26 -6 4 -8 11 -5 16
4 5 -1 9 -9 9 -8 0 -20 8 -25 18 -9 15 -10 13 -11 -10 0 -25 -15 -46 -26 -36
-2 3 -5 17 -6 31 -1 15 -6 27 -11 27 -5 0 -6 -8 -3 -17 3 -10 1 -25 -4 -33 -8
-12 -10 -9 -10 11 0 17 -9 32 -23 42 -23 15 -24 15 -19 -11 4 -26 3 -25 -32
13 -28 30 -35 35 -31 18 3 -12 2 -24 -3 -27 -6 -3 -12 3 -15 13 -4 16 -13 18
-73 16 -95 -3 -94 -3 -88 -20 8 -19 2 -19 -43 0 -20 8 -38 13 -41 11 -8 -9 10
-26 25 -24 9 2 18 -3 20 -9 6 -18 -99 -15 -151 4 -39 13 -39 13 -21 -7 18 -20
18 -20 -18 -20 -23 0 -39 6 -45 17 -7 11 -15 14 -28 8 -11 -5 -30 -10 -44 -11
-14 -2 -26 -8 -28 -14 -2 -5 -17 -10 -34 -10 -19 0 -28 4 -25 13 2 6 14 11 28
11 13 -1 29 5 35 14 7 9 16 12 25 7 8 -5 11 -4 6 0 -10 12 -107 16 -107 4 0
-5 -7 -9 -15 -9 -8 0 -15 -4 -15 -10 0 -5 5 -10 11 -10 5 0 7 -4 4 -10 -12
-19 -23 -10 -20 16 3 31 -15 40 -55 26 -34 -12 -49 0 -30 23 7 8 11 15 9 16
-28 6 -67 2 -91 -10z m50 -86 c-3 -3 -9 2 -12 12 -6 14 -5 15 5 6 7 -7 10 -15
7 -18z m337 -6 c4 -11 5 -23 2 -25 -8 -8 -47 28 -41 38 10 15 33 8 39 -13z
m-120 -14 c14 -3 25 -10 25 -16 0 -8 -11 -9 -32 -4 -18 4 -42 8 -53 10 -11 1
-24 3 -30 4 -5 1 -3 6 5 11 8 5 25 7 37 5 13 -3 34 -7 48 -10z m-396 -55 c7 0
9 -4 6 -10 -15 -24 -59 -2 -49 25 7 16 8 16 19 1 7 -9 18 -16 24 -16z"/>
<path d="M2850 4805 c0 -15 4 -24 10 -20 6 3 10 12 10 20 0 8 -4 17 -10 20 -6
4 -10 -5 -10 -20z"/>
<path d="M3538 4813 c6 -2 18 -2 25 0 6 3 1 5 -13 5 -14 0 -19 -2 -12 -5z"/>
<path d="M6145 4810 c4 -6 11 -8 16 -5 14 9 11 15 -7 15 -8 0 -12 -5 -9 -10z"/>
<path d="M2780 4796 c0 -9 5 -16 10 -16 6 0 10 4 10 9 0 6 -4 13 -10 16 -5 3
-10 -1 -10 -9z"/>
<path d="M4350 4785 c-10 -12 -10 -15 4 -15 9 0 16 7 16 15 0 8 -2 15 -4 15
-2 0 -9 -7 -16 -15z"/>
<path d="M4977 4728 c-10 -5 -24 -7 -32 -4 -7 2 -16 -2 -19 -10 -7 -18 40 -20
47 -1 4 9 8 9 15 -2 11 -15 24 0 14 16 -5 8 -13 8 -25 1z"/>
<path d="M2736 4683 c-10 -10 21 -68 58 -108 20 -22 36 -34 36 -27 0 27 -26
92 -37 92 -6 0 -14 9 -18 19 -6 20 -29 34 -39 24z"/>
<path d="M4667 4660 c-3 -11 -2 -20 3 -20 12 0 21 28 11 35 -5 2 -11 -4 -14
-15z"/>
<path d="M5600 4611 c0 -5 7 -11 15 -15 8 -3 15 -1 15 3 0 5 -7 11 -15 15 -8
3 -15 1 -15 -3z"/>
<path d="M2910 4600 c0 -5 5 -10 11 -10 5 0 7 5 4 10 -3 6 -8 10 -11 10 -2 0
-4 -4 -4 -10z"/>
<path d="M5565 4571 c3 -6 22 -11 42 -11 45 0 39 8 -11 16 -26 4 -36 2 -31 -5z"/>
<path d="M2626 4425 c5 -11 1 -14 -12 -9 -11 3 -15 2 -8 -3 6 -4 13 -16 17
-25 3 -10 11 -18 17 -18 14 0 13 17 -2 23 -10 4 -10 7 0 18 16 17 15 29 -3 29
-9 0 -12 -6 -9 -15z"/>
<path d="M2670 4386 c0 -8 4 -17 9 -20 5 -4 7 3 4 14 -6 23 -13 26 -13 6z"/>
<path d="M2668 4323 c7 -3 16 -2 19 1 4 3 -2 6 -13 5 -11 0 -14 -3 -6 -6z"/>
<path d="M3525 4290 c-3 -6 1 -13 10 -16 19 -8 30 0 20 15 -8 14 -22 14 -30 1z"/>
<path d="M6265 4210 c-28 -31 -8 -37 23 -7 19 20 22 27 11 27 -9 0 -24 -9 -34
-20z"/>
<path d="M4611 4040 c0 -29 1 -32 10 -17 7 11 7 23 0 35 -9 14 -10 11 -10 -18z"/>
<path d="M6220 4035 c13 -16 6 -65 -10 -65 -6 0 -10 -4 -10 -9 0 -12 68 21 74
37 3 7 -4 17 -17 22 -12 5 -17 9 -12 10 6 0 3 5 -5 10 -23 15 -34 12 -20 -5z"/>
<path d="M6116 3999 c-16 -5 -32 -6 -36 -4 -4 3 -7 -5 -6 -18 1 -16 9 -24 31
-28 63 -14 82 -10 87 15 4 18 1 23 -10 18 -11 -4 -13 -2 -7 9 7 12 6 12 -7 1
-14 -11 -17 -11 -20 1 -2 10 -11 12 -32 6z"/>
<path d="M4074 3654 c3 -9 6 -22 6 -30 0 -9 4 -13 9 -10 11 7 2 56 -11 56 -6
0 -7 -7 -4 -16z"/>
<path d="M2712 3635 c4 -4 3 -14 -3 -22 -7 -8 -8 -13 -1 -13 15 0 23 28 9 36
-7 4 -9 4 -5 -1z"/>
<path d="M6035 3620 c-3 -5 -2 -10 4 -10 5 0 13 5 16 10 3 6 2 10 -4 10 -5 0
-13 -4 -16 -10z"/>
<path d="M6070 3580 c-9 -6 -10 -10 -3 -10 6 0 15 5 18 10 8 12 4 12 -15 0z"/>
<path d="M2955 3410 c3 -5 8 -10 11 -10 2 0 4 5 4 10 0 6 -5 10 -11 10 -5 0
-7 -4 -4 -10z"/>
<path d="M4770 3341 c0 -17 4 -31 9 -31 5 0 9 11 9 25 0 14 -4 28 -9 31 -5 3
-9 -9 -9 -25z"/>
<path d="M5900 3286 c0 -17 16 -30 23 -19 3 5 -1 14 -9 21 -12 10 -14 10 -14
-2z"/>
<path d="M5550 3220 c0 -5 7 -10 16 -10 8 0 12 5 9 10 -3 6 -10 10 -16 10 -5
0 -9 -4 -9 -10z"/>
<path d="M5646 6364 c-11 -29 10 -43 84 -59 l35 -7 -35 31 c-66 59 -74 62 -84
35z"/>
<path d="M5700 6370 c0 -12 28 -21 35 -11 2 5 -4 11 -15 14 -11 3 -20 2 -20
-3z"/>
<path d="M5781 6284 c0 -11 3 -14 6 -6 3 7 2 16 -1 19 -3 4 -6 -2 -5 -13z"/>
<path d="M5310 4130 c0 -5 5 -10 11 -10 5 0 7 5 4 10 -3 6 -8 10 -11 10 -2 0
-4 -4 -4 -10z"/>
<path d="M3755 3140 c-3 -5 -1 -18 4 -27 9 -16 10 -14 11 10 0 28 -5 34 -15
17z"/>
<path d="M3785 3010 c-3 -5 -2 -10 4 -10 5 0 13 5 16 10 3 6 2 10 -4 10 -5 0
-13 -4 -16 -10z"/>
<path d="M3765 2980 c-4 -6 5 -10 20 -10 15 0 24 4 20 10 -3 6 -12 10 -20 10
-8 0 -17 -4 -20 -10z"/>
<path d="M3815 2931 c-7 -12 12 -24 25 -16 11 7 4 25 -10 25 -5 0 -11 -4 -15
-9z"/>
<path d="M4950 3105 c-7 -9 -8 -15 -2 -15 5 0 12 7 16 15 3 8 4 15 2 15 -2 0
-9 -7 -16 -15z"/>
<path d="M5070 3067 c0 -16 6 -35 14 -43 23 -22 26 -2 5 36 l-18 35 -1 -28z"/>
<path d="M3115 2740 c-3 -5 1 -10 9 -10 9 0 16 5 16 10 0 6 -4 10 -9 10 -6 0
-13 -4 -16 -10z"/>
<path d="M3175 2560 c-3 -5 -1 -10 4 -10 6 0 11 5 11 10 0 6 -2 10 -4 10 -3 0
-8 -4 -11 -10z"/>
<path d="M3143 2495 c0 -28 12 -42 20 -22 3 7 -1 21 -8 30 -11 16 -12 15 -12
-8z"/>
<path d="M3260 2460 c0 -5 5 -10 10 -10 6 0 10 5 10 10 0 6 -4 10 -10 10 -5 0
-10 -4 -10 -10z"/>
<path d="M5063 2456 c-16 -8 -21 -16 -17 -29 5 -16 2 -18 -15 -12 -16 5 -21 2
-21 -10 0 -11 5 -15 15 -12 8 4 17 1 21 -5 5 -7 11 -5 20 6 7 10 17 15 23 12
16 -10 25 35 10 48 -10 9 -20 10 -36 2z"/>
<path d="M4900 2450 c0 -5 7 -10 15 -10 8 0 15 5 15 10 0 6 -7 10 -15 10 -8 0
-15 -4 -15 -10z"/>
<path d="M4920 2208 c0 -10 5 -18 10 -18 6 0 9 -3 9 -7 -3 -19 2 -33 11 -33
16 0 11 26 -10 51 -16 20 -19 21 -20 7z"/>
<path d="M5100 2082 c10 -5 15 -21 15 -49 -1 -24 0 -43 2 -43 1 0 10 17 18 37
10 25 12 39 5 41 -5 2 -8 8 -4 13 3 5 -7 9 -23 8 -18 0 -23 -3 -13 -7z"/>
<path d="M4018 2063 c7 -3 16 -2 19 1 4 3 -2 6 -13 5 -11 0 -14 -3 -6 -6z"/>
<path d="M4207 2053 c-13 -12 -7 -33 8 -33 8 0 15 9 15 20 0 20 -11 26 -23 13z"/>
<path d="M3938 2043 c6 -2 18 -2 25 0 6 3 1 5 -13 5 -14 0 -19 -2 -12 -5z"/>
<path d="M4801 1964 c0 -11 3 -14 6 -6 3 7 2 16 -1 19 -3 4 -6 -2 -5 -13z"/>
<path d="M4125 1900 c3 -5 10 -10 16 -10 5 0 9 5 9 10 0 6 -7 10 -16 10 -8 0
-12 -4 -9 -10z"/>
<path d="M4250 1888 c-16 -7 -20 -12 -12 -15 8 -3 21 2 30 11 19 18 17 19 -18
4z"/>
<path d="M4836 1874 c-4 -9 -4 -19 -1 -22 2 -3 7 3 11 12 4 9 4 19 1 22 -2 3
-7 -3 -11 -12z"/>
<path d="M4960 1821 c0 -6 5 -13 10 -16 6 -3 10 1 10 9 0 9 -4 16 -10 16 -5 0
-10 -4 -10 -9z"/>
<path d="M4888 1765 c-3 -16 -9 -38 -13 -47 -8 -19 2 -23 24 -9 10 7 11 18 4
47 l-9 39 -6 -30z"/>
<path d="M4647 1723 c-4 -3 -7 -11 -7 -17 0 -6 5 -5 12 2 6 6 9 14 7 17 -3 3
-9 2 -12 -2z"/>
<path d="M4540 1669 c0 -5 5 -7 10 -4 6 3 10 8 10 11 0 2 -4 4 -10 4 -5 0 -10
-5 -10 -11z"/>
<path d="M4374 1649 c-3 -6 -1 -15 6 -19 10 -6 7 -11 -9 -21 -24 -16 -29 -41
-6 -33 8 4 15 10 15 16 0 5 7 16 15 24 8 9 15 22 15 30 0 17 -26 19 -36 3z"/>
<path d="M4470 1639 c0 -5 5 -7 10 -4 6 3 10 8 10 11 0 2 -4 4 -10 4 -5 0 -10
-5 -10 -11z"/>
<path d="M4460 1600 c0 -11 4 -20 9 -20 5 0 7 9 4 20 -3 11 -7 20 -9 20 -2 0
-4 -9 -4 -20z"/>
<path d="M4392 1567 c-15 -35 -15 -57 -1 -57 5 0 7 -6 4 -12 -4 -7 0 -5 8 5 9
10 21 15 31 11 9 -3 16 -2 16 4 0 5 -9 12 -19 15 -12 3 -21 16 -23 33 l-4 29
-12 -28z"/>
<path d="M4171 1542 c-13 -25 -14 -42 -2 -42 10 0 25 50 17 57 -2 3 -9 -4 -15
-15z"/>
<path d="M6532 1658 c2 -18 -3 -24 -27 -29 l-30 -7 28 -1 c27 -1 37 -16 15
-23 -9 -3 -8 -12 5 -31 21 -33 23 -71 3 -64 -12 5 -13 -1 -9 -29 4 -23 2 -34
-6 -34 -7 0 -9 -5 -6 -10 4 -6 11 -7 17 -4 7 5 9 0 6 -13 -3 -11 -1 -28 4 -37
7 -12 5 -16 -7 -16 -9 0 -15 -9 -15 -21 0 -15 5 -19 16 -15 8 3 12 2 9 -4 -7
-11 12 -50 24 -50 11 0 7 106 -4 133 -4 9 -3 17 3 17 5 0 12 9 15 20 6 23 -11
27 -19 5 -7 -16 -24 -21 -24 -6 0 5 7 17 16 25 17 18 31 146 20 190 -8 32 -39
36 -34 4z"/>
<path d="M6835 1550 l-30 -6 30 -6 c44 -9 76 -8 70 1 -8 13 -37 18 -70 11z"/>
<path d="M6570 1496 c0 -9 5 -16 10 -16 6 0 10 4 10 9 0 6 -4 13 -10 16 -5 3
-10 -1 -10 -9z"/>
<path d="M6690 1485 c-9 -11 -10 -19 -3 -26 7 -7 12 -2 15 15 6 30 5 31 -12
11z"/>
<path d="M6710 1429 c0 -5 5 -7 10 -4 6 3 10 8 10 11 0 2 -4 4 -10 4 -5 0 -10
-5 -10 -11z"/>
<path d="M6555 1250 c-3 -5 -1 -10 4 -10 6 0 11 5 11 10 0 6 -2 10 -4 10 -3 0
-8 -4 -11 -10z"/>
<path d="M6170 920 c-7 -5 -15 -21 -17 -37 l-2 -28 10 25 c5 13 15 28 22 32 6
4 9 9 6 12 -2 3 -11 1 -19 -4z"/>
<path d="M5918 435 c-16 -9 -28 -17 -28 -19 0 -2 28 -2 63 -1 43 3 62 8 62 17
0 19 -65 21 -97 3z"/>
<path d="M6042 403 c2 -9 8 -18 15 -20 7 -3 9 3 6 16 -6 25 -26 28 -21 4z"/>
<path d="M2890 471 c0 -5 5 -13 10 -16 6 -3 10 -2 10 4 0 5 -4 13 -10 16 -5 3
-10 2 -10 -4z"/>
<path d="M2920 396 c0 -8 4 -17 9 -20 5 -4 7 3 4 14 -6 23 -13 26 -13 6z"/>
<path d="M2990 349 c0 -16 27 -46 35 -38 2 2 -5 15 -15 29 -15 19 -20 21 -20
9z"/>
<path d="M3090 243 c6 -13 18 -23 28 -22 14 0 14 2 2 6 -8 4 -21 13 -28 22
-11 14 -11 13 -2 -6z"/>
<path d="M3145 141 c-2 -5 4 -11 15 -14 11 -3 20 -2 20 3 0 12 -28 21 -35 11z"/>
<path d="M3205 120 c-3 -5 1 -10 9 -10 9 0 16 5 16 10 0 6 -4 10 -9 10 -6 0
-13 -4 -16 -10z"/>
<path d="M2765 8250 c-3 -5 3 -10 14 -10 12 0 21 5 21 10 0 6 -6 10 -14 10 -8
0 -18 -4 -21 -10z"/>
<path d="M2406 970 c1 -94 9 -100 79 -66 53 26 55 28 55 67 0 33 -3 40 -17 38
-10 -1 -31 3 -46 9 -72 30 -72 30 -71 -48z"/>
<path d="M2572 890 c0 -19 2 -27 5 -17 2 9 2 25 0 35 -3 9 -5 1 -5 -18z"/>
<path d="M2286 845 c6 -14 12 -17 30 -14 4 0 10 -3 13 -9 3 -5 15 -14 26 -20
19 -11 19 -11 -5 -11 -14 -1 -36 8 -50 19 -14 11 -30 20 -37 20 -17 0 -82 -96
-120 -180 -46 -100 -49 -106 -68 -170 -27 -86 -110 -252 -142 -283 -45 -42
-132 -54 -229 -32 -41 10 -77 22 -80 27 -3 4 -10 8 -15 8 -13 0 -1 -60 16 -80
21 -25 45 -78 45 -100 0 -18 6 -20 60 -20 37 0 75 7 102 19 24 11 58 25 76 31
39 15 43 33 5 24 -20 -5 -25 -3 -18 4 6 6 21 13 34 15 27 4 61 45 54 64 -6 14
34 52 55 53 7 0 38 53 70 118 136 273 210 400 226 384 4 -3 4 1 0 11 -4 12 -1
17 10 17 9 0 21 12 26 26 14 35 12 54 -4 54 -7 0 -25 9 -39 20 -30 24 -49 26
-41 5z"/>
<path d="M987 810 c-3 -11 -1 -33 3 -48 7 -23 8 -21 9 21 1 50 -3 60 -12 27z"/>
<path d="M2560 755 c0 -39 20 -207 26 -216 3 -5 9 -7 14 -4 5 3 2 24 -6 47 -7
22 -14 68 -14 102 0 33 -5 68 -10 76 -8 12 -10 12 -10 -5z"/>
<path d="M7293 709 c-46 -13 -55 -33 -12 -25 116 22 161 16 222 -26 23 -17 37
-19 82 -13 30 3 58 11 61 17 4 6 -12 7 -47 3 -47 -6 -62 -3 -119 24 -68 32
-124 38 -187 20z"/>
<path d="M7189 682 c-9 -9 -19 -32 -22 -49 -4 -18 -16 -54 -27 -80 -12 -27
-25 -57 -30 -68 -5 -11 -20 -60 -35 -110 -14 -49 -45 -150 -69 -222 -27 -84
-39 -133 -31 -133 6 0 22 30 35 68 12 37 27 71 31 76 5 6 9 18 9 27 0 18 93
296 130 389 21 50 37 121 29 119 -2 0 -11 -8 -20 -17z"/>
<path d="M2297 653 c-11 -13 -17 -27 -14 -30 3 -2 13 7 23 21 22 34 15 42 -9
9z"/>
<path d="M7330 670 c-14 -4 -41 -8 -60 -9 -35 -1 -35 -2 -57 -73 -12 -40 -31
-98 -43 -128 -26 -67 -51 -139 -83 -246 -14 -44 -34 -101 -46 -127 -30 -66
-28 -70 24 -65 27 4 54 0 71 -8 21 -11 98 -14 369 -14 l343 0 12 33 c7 17 23
55 35 82 45 99 55 123 55 138 0 26 51 221 62 234 16 19 2 30 -45 35 -23 3 -58
12 -77 21 -19 9 -57 19 -85 22 -33 3 -64 15 -92 35 -43 32 -82 37 -129 20 -27
-11 -54 -3 -125 35 -34 19 -97 26 -129 15z"/>
<path d="M7700 641 c0 -24 59 -51 112 -50 39 0 48 3 33 9 -11 5 -32 9 -47 9
-15 1 -43 10 -63 21 -19 11 -35 16 -35 11z"/>
<path d="M2182 413 c-51 -102 -90 -188 -88 -190 14 -14 33 18 111 192 15 33
40 88 56 123 15 34 25 62 21 62 -4 -1 -49 -85 -100 -187z"/>
<path d="M7870 585 c0 -8 61 -37 67 -31 3 2 -9 12 -26 20 -31 17 -41 19 -41
11z"/>
<path d="M8031 473 c-5 -10 -25 -84 -45 -164 -20 -81 -42 -160 -50 -175 -43
-88 -57 -139 -35 -132 6 2 11 8 11 13 0 6 3 15 8 20 23 27 110 314 110 360 0
9 9 34 19 55 15 31 16 40 5 40 -7 0 -17 -8 -23 -17z"/>
<path d="M8270 410 c0 -5 7 -10 16 -10 8 0 12 5 9 10 -3 6 -10 10 -16 10 -5 0
-9 -4 -9 -10z"/>
<path d="M8355 361 c2 -4 23 -14 47 -21 24 -8 49 -22 56 -32 7 -10 20 -18 28
-18 8 0 23 -5 34 -12 10 -7 22 -9 26 -6 10 11 -6 28 -25 28 -10 0 -24 7 -31
15 -7 8 -19 15 -26 15 -8 0 -14 4 -14 9 0 5 -10 12 -22 16 -33 10 -79 14 -73
6z"/>
<path d="M8400 315 c0 -5 5 -17 10 -25 5 -8 10 -10 10 -5 0 6 -5 17 -10 25 -5
8 -10 11 -10 5z"/>
<path d="M8388 273 c-5 -18 -1 -22 21 -25 15 -2 30 -12 36 -25 5 -13 13 -23
18 -23 9 0 -1 39 -15 56 -5 7 -17 10 -27 7 -13 -3 -20 1 -23 14 -3 16 -5 15
-10 -4z"/>
<path d="M8603 243 c9 -2 23 -2 30 0 6 3 -1 5 -18 5 -16 0 -22 -2 -12 -5z"/>
<path d="M8487 229 c7 -7 15 -10 18 -7 3 3 -2 9 -12 12 -14 6 -15 5 -6 -5z"/>
<path d="M2009 174 c-12 -14 -11 -16 5 -13 11 2 21 10 24 17 5 17 -13 15 -29
-4z"/>
<path d="M980 20 c0 -15 7 -20 27 -20 l27 0 -22 20 c-27 25 -32 25 -32 0z"/>
</g>
</svg>
